<mxfile host="app.diagrams.net" modified="2022-01-20T10:20:22.963Z" agent="5.0 (Windows NT 10.0; Win64; x64) AppleWebKit/537.36 (KHTML, like Gecko) Chrome/97.0.4692.71 Safari/537.36" etag="anNxd0B_J39QNlRfLN6H" version="16.4.2" type="github">
  <diagram id="o5YWNzAbh3qB8RjAFsjl" name="Page-1">
    <mxGraphModel dx="1185" dy="635" grid="1" gridSize="10" guides="1" tooltips="1" connect="1" arrows="1" fold="1" page="1" pageScale="1" pageWidth="827" pageHeight="1169" background="#F1FAEE" math="0" shadow="0">
      <root>
        <mxCell id="0" />
        <mxCell id="1" parent="0" />
        <mxCell id="xTU-l0KiYJfRe7PfPw5q-202" value="" style="rounded=0;whiteSpace=wrap;html=1;fontSize=15;" parent="1" vertex="1">
          <mxGeometry x="1197" y="550" width="870" height="330" as="geometry" />
        </mxCell>
        <mxCell id="xTU-l0KiYJfRe7PfPw5q-119" value="" style="rounded=0;whiteSpace=wrap;html=1;fontSize=15;" parent="1" vertex="1">
          <mxGeometry x="80" y="120" width="985" height="330" as="geometry" />
        </mxCell>
        <mxCell id="B5aQ0IUT32xwoaF6itCj-6" value="CONTROLLER" style="text;html=1;strokeColor=none;fillColor=none;align=center;verticalAlign=middle;whiteSpace=wrap;rounded=0;fontColor=#1D3557;" parent="1" vertex="1">
          <mxGeometry x="115" y="170" width="80" height="20" as="geometry" />
        </mxCell>
        <mxCell id="B5aQ0IUT32xwoaF6itCj-7" value="SERVICE" style="text;html=1;strokeColor=none;fillColor=none;align=center;verticalAlign=middle;whiteSpace=wrap;rounded=0;fontColor=#1D3557;" parent="1" vertex="1">
          <mxGeometry x="110" y="230" width="80" height="20" as="geometry" />
        </mxCell>
        <mxCell id="B5aQ0IUT32xwoaF6itCj-8" value="REPOSITORY" style="text;html=1;strokeColor=none;fillColor=none;align=center;verticalAlign=middle;whiteSpace=wrap;rounded=0;fontColor=#1D3557;" parent="1" vertex="1">
          <mxGeometry x="115" y="315" width="80" height="20" as="geometry" />
        </mxCell>
        <mxCell id="B5aQ0IUT32xwoaF6itCj-9" value="DB 테이블" style="text;html=1;strokeColor=none;fillColor=none;align=center;verticalAlign=middle;whiteSpace=wrap;rounded=0;fontColor=#1D3557;" parent="1" vertex="1">
          <mxGeometry x="115" y="395" width="80" height="20" as="geometry" />
        </mxCell>
        <mxCell id="B5aQ0IUT32xwoaF6itCj-11" value="" style="endArrow=none;html=1;rounded=1;labelBackgroundColor=#F1FAEE;strokeColor=#457B9D;fontColor=#1D3557;exitX=0.03;exitY=0.273;exitDx=0;exitDy=0;exitPerimeter=0;" parent="1" source="xTU-l0KiYJfRe7PfPw5q-119" edge="1">
          <mxGeometry width="50" height="50" relative="1" as="geometry">
            <mxPoint x="220" y="210" as="sourcePoint" />
            <mxPoint x="1020" y="210" as="targetPoint" />
          </mxGeometry>
        </mxCell>
        <mxCell id="B5aQ0IUT32xwoaF6itCj-27" value="" style="edgeStyle=orthogonalEdgeStyle;rounded=1;orthogonalLoop=1;jettySize=auto;html=1;fontSize=20;labelBackgroundColor=#F1FAEE;strokeColor=#457B9D;fontColor=#1D3557;" parent="1" source="B5aQ0IUT32xwoaF6itCj-18" target="B5aQ0IUT32xwoaF6itCj-26" edge="1">
          <mxGeometry relative="1" as="geometry">
            <Array as="points">
              <mxPoint x="630" y="290" />
              <mxPoint x="400" y="290" />
            </Array>
          </mxGeometry>
        </mxCell>
        <mxCell id="xTU-l0KiYJfRe7PfPw5q-4" value="" style="edgeStyle=orthogonalEdgeStyle;rounded=1;orthogonalLoop=1;jettySize=auto;html=1;fontSize=15;labelBackgroundColor=#F1FAEE;strokeColor=#457B9D;fontColor=#1D3557;" parent="1" source="B5aQ0IUT32xwoaF6itCj-18" target="xTU-l0KiYJfRe7PfPw5q-3" edge="1">
          <mxGeometry relative="1" as="geometry">
            <Array as="points">
              <mxPoint x="630" y="290" />
              <mxPoint x="530" y="290" />
            </Array>
          </mxGeometry>
        </mxCell>
        <mxCell id="xTU-l0KiYJfRe7PfPw5q-6" value="" style="edgeStyle=orthogonalEdgeStyle;rounded=1;orthogonalLoop=1;jettySize=auto;html=1;fontSize=15;labelBackgroundColor=#F1FAEE;strokeColor=#457B9D;fontColor=#1D3557;" parent="1" source="B5aQ0IUT32xwoaF6itCj-18" target="xTU-l0KiYJfRe7PfPw5q-5" edge="1">
          <mxGeometry relative="1" as="geometry">
            <Array as="points">
              <mxPoint x="630" y="290" />
              <mxPoint x="660" y="290" />
            </Array>
          </mxGeometry>
        </mxCell>
        <mxCell id="xTU-l0KiYJfRe7PfPw5q-11" value="" style="edgeStyle=orthogonalEdgeStyle;rounded=1;orthogonalLoop=1;jettySize=auto;html=1;fontSize=15;labelBackgroundColor=#F1FAEE;strokeColor=#457B9D;fontColor=#1D3557;" parent="1" source="B5aQ0IUT32xwoaF6itCj-18" target="xTU-l0KiYJfRe7PfPw5q-10" edge="1">
          <mxGeometry relative="1" as="geometry">
            <Array as="points">
              <mxPoint x="630" y="290" />
              <mxPoint x="820" y="290" />
            </Array>
          </mxGeometry>
        </mxCell>
        <mxCell id="xTU-l0KiYJfRe7PfPw5q-13" value="" style="edgeStyle=orthogonalEdgeStyle;rounded=1;orthogonalLoop=1;jettySize=auto;html=1;fontSize=15;labelBackgroundColor=#F1FAEE;strokeColor=#457B9D;fontColor=#1D3557;" parent="1" source="B5aQ0IUT32xwoaF6itCj-18" target="xTU-l0KiYJfRe7PfPw5q-12" edge="1">
          <mxGeometry relative="1" as="geometry">
            <Array as="points">
              <mxPoint x="630" y="290" />
              <mxPoint x="960" y="290" />
            </Array>
          </mxGeometry>
        </mxCell>
        <mxCell id="xTU-l0KiYJfRe7PfPw5q-15" value="" style="edgeStyle=orthogonalEdgeStyle;rounded=1;orthogonalLoop=1;jettySize=auto;html=1;fontSize=15;fontColor=#1D3557;labelBackgroundColor=#F1FAEE;strokeColor=#FF9999;" parent="1" source="B5aQ0IUT32xwoaF6itCj-18" target="xTU-l0KiYJfRe7PfPw5q-14" edge="1">
          <mxGeometry relative="1" as="geometry">
            <Array as="points">
              <mxPoint x="640" y="200" />
              <mxPoint x="740" y="200" />
            </Array>
          </mxGeometry>
        </mxCell>
        <mxCell id="xTU-l0KiYJfRe7PfPw5q-28" style="edgeStyle=orthogonalEdgeStyle;rounded=1;orthogonalLoop=1;jettySize=auto;html=1;entryX=0.5;entryY=0;entryDx=0;entryDy=0;labelBackgroundColor=#F1FAEE;fontSize=15;fontColor=#1D3557;strokeColor=#FF9999;" parent="1" source="B5aQ0IUT32xwoaF6itCj-18" target="xTU-l0KiYJfRe7PfPw5q-1" edge="1">
          <mxGeometry relative="1" as="geometry">
            <Array as="points">
              <mxPoint x="620" y="200" />
              <mxPoint x="510" y="200" />
            </Array>
          </mxGeometry>
        </mxCell>
        <mxCell id="B5aQ0IUT32xwoaF6itCj-18" value="MemberController" style="text;html=1;strokeColor=none;fillColor=none;align=center;verticalAlign=middle;whiteSpace=wrap;rounded=0;fontSize=20;fontColor=#7EA6E0;" parent="1" vertex="1">
          <mxGeometry x="570" y="150" width="120" height="30" as="geometry" />
        </mxCell>
        <mxCell id="B5aQ0IUT32xwoaF6itCj-29" value="" style="edgeStyle=orthogonalEdgeStyle;rounded=1;orthogonalLoop=1;jettySize=auto;html=1;fontSize=15;labelBackgroundColor=#F1FAEE;strokeColor=#457B9D;fontColor=#1D3557;" parent="1" source="B5aQ0IUT32xwoaF6itCj-26" target="B5aQ0IUT32xwoaF6itCj-28" edge="1">
          <mxGeometry relative="1" as="geometry">
            <Array as="points">
              <mxPoint x="400" y="420" />
              <mxPoint x="400" y="420" />
            </Array>
          </mxGeometry>
        </mxCell>
        <mxCell id="B5aQ0IUT32xwoaF6itCj-26" value="MemberDao" style="text;html=1;strokeColor=none;fillColor=none;align=center;verticalAlign=middle;whiteSpace=wrap;rounded=0;fontSize=15;fontColor=#7EA6E0;" parent="1" vertex="1">
          <mxGeometry x="340" y="310" width="120" height="30" as="geometry" />
        </mxCell>
        <mxCell id="B5aQ0IUT32xwoaF6itCj-28" value="member" style="text;html=1;strokeColor=none;fillColor=none;align=center;verticalAlign=middle;whiteSpace=wrap;rounded=0;fontSize=15;fontColor=#7EA6E0;" parent="1" vertex="1">
          <mxGeometry x="340" y="390" width="120" height="30" as="geometry" />
        </mxCell>
        <mxCell id="xTU-l0KiYJfRe7PfPw5q-26" style="edgeStyle=orthogonalEdgeStyle;rounded=1;orthogonalLoop=1;jettySize=auto;html=1;fontSize=15;strokeColor=#FF9999;labelBackgroundColor=#F1FAEE;fontColor=#1D3557;" parent="1" source="xTU-l0KiYJfRe7PfPw5q-1" edge="1">
          <mxGeometry relative="1" as="geometry">
            <mxPoint x="400" y="290" as="targetPoint" />
            <Array as="points">
              <mxPoint x="510" y="260" />
              <mxPoint x="400" y="260" />
            </Array>
          </mxGeometry>
        </mxCell>
        <mxCell id="xTU-l0KiYJfRe7PfPw5q-198" value="" style="edgeStyle=orthogonalEdgeStyle;rounded=1;sketch=0;orthogonalLoop=1;jettySize=auto;html=1;fontSize=15;fontColor=#7EA6E0;strokeColor=#FF9999;fillColor=#A8DADC;" parent="1" source="xTU-l0KiYJfRe7PfPw5q-1" target="xTU-l0KiYJfRe7PfPw5q-197" edge="1">
          <mxGeometry relative="1" as="geometry">
            <Array as="points">
              <mxPoint x="510" y="260" />
              <mxPoint x="290" y="260" />
            </Array>
          </mxGeometry>
        </mxCell>
        <mxCell id="xTU-l0KiYJfRe7PfPw5q-201" style="edgeStyle=orthogonalEdgeStyle;rounded=1;sketch=0;orthogonalLoop=1;jettySize=auto;html=1;fontSize=15;fontColor=#7EA6E0;strokeColor=#FF9999;fillColor=#A8DADC;" parent="1" source="xTU-l0KiYJfRe7PfPw5q-1" edge="1">
          <mxGeometry relative="1" as="geometry">
            <mxPoint x="820" y="289.9999999999999" as="targetPoint" />
            <Array as="points">
              <mxPoint x="510" y="260" />
              <mxPoint x="820" y="260" />
            </Array>
          </mxGeometry>
        </mxCell>
        <mxCell id="xTU-l0KiYJfRe7PfPw5q-1" value="PaginationService" style="text;html=1;strokeColor=none;fillColor=none;align=center;verticalAlign=middle;whiteSpace=wrap;rounded=0;fontSize=15;fontColor=#7EA6E0;" parent="1" vertex="1">
          <mxGeometry x="450" y="235" width="120" height="20" as="geometry" />
        </mxCell>
        <mxCell id="xTU-l0KiYJfRe7PfPw5q-17" value="" style="edgeStyle=orthogonalEdgeStyle;rounded=1;orthogonalLoop=1;jettySize=auto;html=1;fontSize=15;labelBackgroundColor=#F1FAEE;strokeColor=#457B9D;fontColor=#1D3557;" parent="1" source="xTU-l0KiYJfRe7PfPw5q-3" target="xTU-l0KiYJfRe7PfPw5q-16" edge="1">
          <mxGeometry relative="1" as="geometry" />
        </mxCell>
        <mxCell id="xTU-l0KiYJfRe7PfPw5q-3" value="VisitDao" style="text;html=1;strokeColor=none;fillColor=none;align=center;verticalAlign=middle;whiteSpace=wrap;rounded=0;fontSize=15;fontColor=#7EA6E0;" parent="1" vertex="1">
          <mxGeometry x="470" y="310" width="120" height="30" as="geometry" />
        </mxCell>
        <mxCell id="xTU-l0KiYJfRe7PfPw5q-19" value="" style="edgeStyle=orthogonalEdgeStyle;rounded=1;orthogonalLoop=1;jettySize=auto;html=1;fontSize=15;labelBackgroundColor=#F1FAEE;strokeColor=#457B9D;fontColor=#1D3557;" parent="1" source="xTU-l0KiYJfRe7PfPw5q-5" target="xTU-l0KiYJfRe7PfPw5q-18" edge="1">
          <mxGeometry relative="1" as="geometry" />
        </mxCell>
        <mxCell id="xTU-l0KiYJfRe7PfPw5q-5" value="DormancyDao" style="text;html=1;strokeColor=none;fillColor=none;align=center;verticalAlign=middle;whiteSpace=wrap;rounded=0;fontSize=15;fontColor=#7EA6E0;" parent="1" vertex="1">
          <mxGeometry x="600" y="310" width="120" height="30" as="geometry" />
        </mxCell>
        <mxCell id="xTU-l0KiYJfRe7PfPw5q-23" value="" style="edgeStyle=orthogonalEdgeStyle;rounded=1;orthogonalLoop=1;jettySize=auto;html=1;fontSize=15;labelBackgroundColor=#F1FAEE;strokeColor=#457B9D;fontColor=#1D3557;" parent="1" source="xTU-l0KiYJfRe7PfPw5q-10" target="xTU-l0KiYJfRe7PfPw5q-22" edge="1">
          <mxGeometry relative="1" as="geometry" />
        </mxCell>
        <mxCell id="xTU-l0KiYJfRe7PfPw5q-10" value="PaymentDao" style="text;html=1;strokeColor=none;fillColor=none;align=center;verticalAlign=middle;whiteSpace=wrap;rounded=0;fontSize=15;fontColor=#7EA6E0;" parent="1" vertex="1">
          <mxGeometry x="760" y="310" width="120" height="30" as="geometry" />
        </mxCell>
        <mxCell id="xTU-l0KiYJfRe7PfPw5q-25" value="" style="edgeStyle=orthogonalEdgeStyle;rounded=1;orthogonalLoop=1;jettySize=auto;html=1;fontSize=15;labelBackgroundColor=#F1FAEE;strokeColor=#457B9D;fontColor=#1D3557;" parent="1" source="xTU-l0KiYJfRe7PfPw5q-12" target="xTU-l0KiYJfRe7PfPw5q-24" edge="1">
          <mxGeometry relative="1" as="geometry" />
        </mxCell>
        <mxCell id="xTU-l0KiYJfRe7PfPw5q-12" value="PayDetailDao" style="text;html=1;strokeColor=none;fillColor=none;align=center;verticalAlign=middle;whiteSpace=wrap;rounded=0;fontSize=15;fontColor=#7EA6E0;" parent="1" vertex="1">
          <mxGeometry x="900" y="310" width="120" height="30" as="geometry" />
        </mxCell>
        <mxCell id="xTU-l0KiYJfRe7PfPw5q-27" style="edgeStyle=orthogonalEdgeStyle;rounded=1;orthogonalLoop=1;jettySize=auto;html=1;fontSize=15;strokeColor=#FF9999;labelBackgroundColor=#F1FAEE;fontColor=#1D3557;" parent="1" source="xTU-l0KiYJfRe7PfPw5q-14" edge="1">
          <mxGeometry relative="1" as="geometry">
            <mxPoint x="820" y="290" as="targetPoint" />
            <Array as="points">
              <mxPoint x="740" y="260" />
              <mxPoint x="820" y="260" />
            </Array>
          </mxGeometry>
        </mxCell>
        <mxCell id="xTU-l0KiYJfRe7PfPw5q-14" value="ShopPayService" style="text;html=1;strokeColor=none;fillColor=none;align=center;verticalAlign=middle;whiteSpace=wrap;rounded=0;fontSize=15;fontColor=#7EA6E0;" parent="1" vertex="1">
          <mxGeometry x="680" y="235" width="120" height="20" as="geometry" />
        </mxCell>
        <mxCell id="xTU-l0KiYJfRe7PfPw5q-16" value="visit" style="text;html=1;strokeColor=none;fillColor=none;align=center;verticalAlign=middle;whiteSpace=wrap;rounded=0;fontSize=15;fontColor=#7EA6E0;" parent="1" vertex="1">
          <mxGeometry x="470" y="390" width="120" height="30" as="geometry" />
        </mxCell>
        <mxCell id="xTU-l0KiYJfRe7PfPw5q-18" value="dormancy" style="text;html=1;strokeColor=none;fillColor=none;align=center;verticalAlign=middle;whiteSpace=wrap;rounded=0;fontSize=15;fontColor=#7EA6E0;" parent="1" vertex="1">
          <mxGeometry x="600" y="390" width="120" height="30" as="geometry" />
        </mxCell>
        <mxCell id="xTU-l0KiYJfRe7PfPw5q-22" value="pay" style="text;html=1;strokeColor=none;fillColor=none;align=center;verticalAlign=middle;whiteSpace=wrap;rounded=0;fontSize=15;fontColor=#7EA6E0;" parent="1" vertex="1">
          <mxGeometry x="760" y="390" width="120" height="30" as="geometry" />
        </mxCell>
        <mxCell id="xTU-l0KiYJfRe7PfPw5q-24" value="payDetail" style="text;html=1;strokeColor=none;fillColor=none;align=center;verticalAlign=middle;whiteSpace=wrap;rounded=0;fontSize=15;fontColor=#7EA6E0;" parent="1" vertex="1">
          <mxGeometry x="900" y="390" width="120" height="30" as="geometry" />
        </mxCell>
        <mxCell id="xTU-l0KiYJfRe7PfPw5q-32" value="" style="rounded=0;whiteSpace=wrap;html=1;fontSize=15;" parent="1" vertex="1">
          <mxGeometry x="137.5" y="550" width="870" height="330" as="geometry" />
        </mxCell>
        <mxCell id="xTU-l0KiYJfRe7PfPw5q-33" value="CONTROLLER" style="text;html=1;strokeColor=none;fillColor=none;align=center;verticalAlign=middle;whiteSpace=wrap;rounded=0;fontColor=#1D3557;" parent="1" vertex="1">
          <mxGeometry x="172.5" y="600" width="80" height="20" as="geometry" />
        </mxCell>
        <mxCell id="xTU-l0KiYJfRe7PfPw5q-34" value="SERVICE" style="text;html=1;strokeColor=none;fillColor=none;align=center;verticalAlign=middle;whiteSpace=wrap;rounded=0;fontColor=#1D3557;" parent="1" vertex="1">
          <mxGeometry x="172.5" y="660" width="80" height="20" as="geometry" />
        </mxCell>
        <mxCell id="xTU-l0KiYJfRe7PfPw5q-35" value="REPOSITORY" style="text;html=1;strokeColor=none;fillColor=none;align=center;verticalAlign=middle;whiteSpace=wrap;rounded=0;fontColor=#1D3557;" parent="1" vertex="1">
          <mxGeometry x="172.5" y="738.75" width="80" height="20" as="geometry" />
        </mxCell>
        <mxCell id="xTU-l0KiYJfRe7PfPw5q-36" value="DB 테이블" style="text;html=1;strokeColor=none;fillColor=none;align=center;verticalAlign=middle;whiteSpace=wrap;rounded=0;fontColor=#1D3557;" parent="1" vertex="1">
          <mxGeometry x="172.5" y="825" width="80" height="20" as="geometry" />
        </mxCell>
        <mxCell id="xTU-l0KiYJfRe7PfPw5q-37" value="" style="endArrow=none;html=1;rounded=0;labelBackgroundColor=#F1FAEE;strokeColor=#457B9D;fontColor=#1D3557;" parent="1" edge="1">
          <mxGeometry width="50" height="50" relative="1" as="geometry">
            <mxPoint x="162.5" y="640" as="sourcePoint" />
            <mxPoint x="962.5" y="640" as="targetPoint" />
          </mxGeometry>
        </mxCell>
        <mxCell id="xTU-l0KiYJfRe7PfPw5q-78" value="" style="edgeStyle=orthogonalEdgeStyle;curved=0;rounded=1;sketch=0;orthogonalLoop=1;jettySize=auto;html=1;fontColor=#7EA6E0;strokeColor=#FF9999;fillColor=#A8DADC;entryX=0.5;entryY=0;entryDx=0;entryDy=0;" parent="1" source="xTU-l0KiYJfRe7PfPw5q-45" target="xTU-l0KiYJfRe7PfPw5q-77" edge="1">
          <mxGeometry relative="1" as="geometry">
            <Array as="points">
              <mxPoint x="572.5" y="630" />
              <mxPoint x="332.5" y="630" />
            </Array>
          </mxGeometry>
        </mxCell>
        <mxCell id="xTU-l0KiYJfRe7PfPw5q-80" value="" style="edgeStyle=orthogonalEdgeStyle;curved=0;rounded=1;sketch=0;orthogonalLoop=1;jettySize=auto;html=1;fontSize=15;fontColor=#7EA6E0;strokeColor=#7EA6E0;fillColor=#A8DADC;entryX=0.5;entryY=0;entryDx=0;entryDy=0;" parent="1" source="xTU-l0KiYJfRe7PfPw5q-45" target="xTU-l0KiYJfRe7PfPw5q-149" edge="1">
          <mxGeometry relative="1" as="geometry">
            <mxPoint x="422.5" y="750" as="targetPoint" />
            <Array as="points">
              <mxPoint x="572.5" y="710" />
              <mxPoint x="422.5" y="710" />
            </Array>
          </mxGeometry>
        </mxCell>
        <mxCell id="xTU-l0KiYJfRe7PfPw5q-82" value="" style="edgeStyle=orthogonalEdgeStyle;curved=0;rounded=1;sketch=0;orthogonalLoop=1;jettySize=auto;html=1;fontSize=15;fontColor=#7EA6E0;strokeColor=#7EA6E0;fillColor=#A8DADC;" parent="1" source="xTU-l0KiYJfRe7PfPw5q-45" edge="1">
          <mxGeometry relative="1" as="geometry">
            <mxPoint x="572.5" y="743.75" as="targetPoint" />
          </mxGeometry>
        </mxCell>
        <mxCell id="xTU-l0KiYJfRe7PfPw5q-84" value="" style="edgeStyle=orthogonalEdgeStyle;curved=0;rounded=1;sketch=0;orthogonalLoop=1;jettySize=auto;html=1;fontSize=15;fontColor=#7EA6E0;strokeColor=#7EA6E0;fillColor=#A8DADC;" parent="1" source="xTU-l0KiYJfRe7PfPw5q-45" target="xTU-l0KiYJfRe7PfPw5q-83" edge="1">
          <mxGeometry relative="1" as="geometry">
            <Array as="points">
              <mxPoint x="572.5" y="710" />
              <mxPoint x="722.5" y="710" />
            </Array>
          </mxGeometry>
        </mxCell>
        <mxCell id="xTU-l0KiYJfRe7PfPw5q-45" value="DormancyController" style="text;html=1;strokeColor=none;fillColor=none;align=center;verticalAlign=middle;whiteSpace=wrap;rounded=0;fontSize=20;fontColor=#7EA6E0;" parent="1" vertex="1">
          <mxGeometry x="512.5" y="580" width="120" height="30" as="geometry" />
        </mxCell>
        <mxCell id="xTU-l0KiYJfRe7PfPw5q-65" value="" style="endArrow=none;html=1;rounded=0;labelBackgroundColor=#F1FAEE;strokeColor=#457B9D;fontColor=#1D3557;" parent="1" edge="1">
          <mxGeometry width="50" height="50" relative="1" as="geometry">
            <mxPoint x="162.5" y="700" as="sourcePoint" />
            <mxPoint x="962.5" y="700" as="targetPoint" />
          </mxGeometry>
        </mxCell>
        <mxCell id="xTU-l0KiYJfRe7PfPw5q-66" value="" style="endArrow=none;html=1;rounded=0;labelBackgroundColor=#F1FAEE;strokeColor=#457B9D;fontColor=#1D3557;" parent="1" edge="1">
          <mxGeometry width="50" height="50" relative="1" as="geometry">
            <mxPoint x="162.5" y="800" as="sourcePoint" />
            <mxPoint x="962.5" y="800" as="targetPoint" />
          </mxGeometry>
        </mxCell>
        <mxCell id="xTU-l0KiYJfRe7PfPw5q-68" value="" style="rounded=0;whiteSpace=wrap;html=1;fontSize=15;" parent="1" vertex="1">
          <mxGeometry x="138" y="1010" width="870" height="330" as="geometry" />
        </mxCell>
        <mxCell id="xTU-l0KiYJfRe7PfPw5q-69" value="CONTROLLER" style="text;html=1;strokeColor=none;fillColor=none;align=center;verticalAlign=middle;whiteSpace=wrap;rounded=0;fontColor=#1D3557;" parent="1" vertex="1">
          <mxGeometry x="173" y="1060" width="80" height="20" as="geometry" />
        </mxCell>
        <mxCell id="xTU-l0KiYJfRe7PfPw5q-70" value="SERVICE" style="text;html=1;strokeColor=none;fillColor=none;align=center;verticalAlign=middle;whiteSpace=wrap;rounded=0;fontColor=#1D3557;" parent="1" vertex="1">
          <mxGeometry x="173" y="1120" width="80" height="20" as="geometry" />
        </mxCell>
        <mxCell id="xTU-l0KiYJfRe7PfPw5q-71" value="REPOSITORY" style="text;html=1;strokeColor=none;fillColor=none;align=center;verticalAlign=middle;whiteSpace=wrap;rounded=0;fontColor=#1D3557;" parent="1" vertex="1">
          <mxGeometry x="173" y="1200" width="80" height="20" as="geometry" />
        </mxCell>
        <mxCell id="xTU-l0KiYJfRe7PfPw5q-72" value="DB 테이블" style="text;html=1;strokeColor=none;fillColor=none;align=center;verticalAlign=middle;whiteSpace=wrap;rounded=0;fontColor=#1D3557;" parent="1" vertex="1">
          <mxGeometry x="173" y="1285" width="80" height="20" as="geometry" />
        </mxCell>
        <mxCell id="xTU-l0KiYJfRe7PfPw5q-73" value="" style="endArrow=none;html=1;rounded=0;labelBackgroundColor=#F1FAEE;strokeColor=#457B9D;fontColor=#1D3557;" parent="1" edge="1">
          <mxGeometry width="50" height="50" relative="1" as="geometry">
            <mxPoint x="163" y="1100" as="sourcePoint" />
            <mxPoint x="963" y="1100" as="targetPoint" />
          </mxGeometry>
        </mxCell>
        <mxCell id="xTU-l0KiYJfRe7PfPw5q-192" value="" style="edgeStyle=orthogonalEdgeStyle;rounded=1;sketch=0;orthogonalLoop=1;jettySize=auto;html=1;fontSize=15;fontColor=#7EA6E0;strokeColor=#7EA6E0;fillColor=#A8DADC;" parent="1" source="xTU-l0KiYJfRe7PfPw5q-74" target="xTU-l0KiYJfRe7PfPw5q-191" edge="1">
          <mxGeometry relative="1" as="geometry" />
        </mxCell>
        <mxCell id="xTU-l0KiYJfRe7PfPw5q-74" value="QuestionController" style="text;html=1;strokeColor=none;fillColor=none;align=center;verticalAlign=middle;whiteSpace=wrap;rounded=0;fontSize=20;fontColor=#7EA6E0;" parent="1" vertex="1">
          <mxGeometry x="513" y="1040" width="120" height="30" as="geometry" />
        </mxCell>
        <mxCell id="xTU-l0KiYJfRe7PfPw5q-75" value="" style="endArrow=none;html=1;rounded=0;labelBackgroundColor=#F1FAEE;strokeColor=#457B9D;fontColor=#1D3557;" parent="1" edge="1">
          <mxGeometry width="50" height="50" relative="1" as="geometry">
            <mxPoint x="163" y="1160" as="sourcePoint" />
            <mxPoint x="963" y="1160" as="targetPoint" />
          </mxGeometry>
        </mxCell>
        <mxCell id="xTU-l0KiYJfRe7PfPw5q-76" value="" style="endArrow=none;html=1;rounded=0;labelBackgroundColor=#F1FAEE;strokeColor=#457B9D;fontColor=#1D3557;" parent="1" edge="1">
          <mxGeometry width="50" height="50" relative="1" as="geometry">
            <mxPoint x="163" y="1260" as="sourcePoint" />
            <mxPoint x="963" y="1260" as="targetPoint" />
          </mxGeometry>
        </mxCell>
        <mxCell id="xTU-l0KiYJfRe7PfPw5q-87" style="edgeStyle=orthogonalEdgeStyle;curved=0;rounded=1;sketch=0;orthogonalLoop=1;jettySize=auto;html=1;fontSize=15;fontColor=#7EA6E0;strokeColor=#FF9999;fillColor=#A8DADC;" parent="1" source="xTU-l0KiYJfRe7PfPw5q-77" edge="1">
          <mxGeometry relative="1" as="geometry">
            <mxPoint x="422.5" y="710" as="targetPoint" />
            <Array as="points">
              <mxPoint x="332.5" y="690" />
              <mxPoint x="422.5" y="690" />
            </Array>
          </mxGeometry>
        </mxCell>
        <mxCell id="xTU-l0KiYJfRe7PfPw5q-77" value="EmailService" style="text;html=1;strokeColor=none;fillColor=none;align=center;verticalAlign=middle;whiteSpace=wrap;rounded=0;fontSize=15;fontColor=#7EA6E0;" parent="1" vertex="1">
          <mxGeometry x="272.5" y="660" width="120" height="20" as="geometry" />
        </mxCell>
        <mxCell id="xTU-l0KiYJfRe7PfPw5q-91" value="" style="edgeStyle=orthogonalEdgeStyle;curved=0;rounded=1;sketch=0;orthogonalLoop=1;jettySize=auto;html=1;fontSize=15;fontColor=#7EA6E0;strokeColor=#7EA6E0;fillColor=#A8DADC;" parent="1" target="xTU-l0KiYJfRe7PfPw5q-90" edge="1">
          <mxGeometry relative="1" as="geometry">
            <mxPoint x="422.5" y="765" as="sourcePoint" />
          </mxGeometry>
        </mxCell>
        <mxCell id="xTU-l0KiYJfRe7PfPw5q-93" value="" style="edgeStyle=orthogonalEdgeStyle;curved=0;rounded=1;sketch=0;orthogonalLoop=1;jettySize=auto;html=1;fontSize=15;fontColor=#7EA6E0;strokeColor=#7EA6E0;fillColor=#A8DADC;" parent="1" source="xTU-l0KiYJfRe7PfPw5q-150" target="xTU-l0KiYJfRe7PfPw5q-92" edge="1">
          <mxGeometry relative="1" as="geometry">
            <mxPoint x="572.5" y="771.25" as="sourcePoint" />
          </mxGeometry>
        </mxCell>
        <mxCell id="xTU-l0KiYJfRe7PfPw5q-95" value="" style="edgeStyle=orthogonalEdgeStyle;curved=0;rounded=1;sketch=0;orthogonalLoop=1;jettySize=auto;html=1;fontSize=15;fontColor=#7EA6E0;strokeColor=#7EA6E0;fillColor=#A8DADC;" parent="1" source="xTU-l0KiYJfRe7PfPw5q-83" target="xTU-l0KiYJfRe7PfPw5q-94" edge="1">
          <mxGeometry relative="1" as="geometry" />
        </mxCell>
        <mxCell id="xTU-l0KiYJfRe7PfPw5q-83" value="DormancyDao" style="text;html=1;strokeColor=none;fillColor=none;align=center;verticalAlign=middle;whiteSpace=wrap;rounded=0;fontSize=15;fontColor=#7EA6E0;" parent="1" vertex="1">
          <mxGeometry x="662.5" y="738.75" width="120" height="20" as="geometry" />
        </mxCell>
        <mxCell id="xTU-l0KiYJfRe7PfPw5q-90" value="certification" style="text;html=1;strokeColor=none;fillColor=none;align=center;verticalAlign=middle;whiteSpace=wrap;rounded=0;fontSize=15;fontColor=#7EA6E0;" parent="1" vertex="1">
          <mxGeometry x="362.5" y="830" width="120" height="15" as="geometry" />
        </mxCell>
        <mxCell id="xTU-l0KiYJfRe7PfPw5q-92" value="member" style="text;html=1;strokeColor=none;fillColor=none;align=center;verticalAlign=middle;whiteSpace=wrap;rounded=0;fontSize=15;fontColor=#7EA6E0;" parent="1" vertex="1">
          <mxGeometry x="512.5" y="830" width="120" height="20" as="geometry" />
        </mxCell>
        <mxCell id="xTU-l0KiYJfRe7PfPw5q-94" value="dormancy" style="text;html=1;strokeColor=none;fillColor=none;align=center;verticalAlign=middle;whiteSpace=wrap;rounded=0;fontSize=15;fontColor=#7EA6E0;" parent="1" vertex="1">
          <mxGeometry x="662.5" y="830" width="120" height="20" as="geometry" />
        </mxCell>
        <mxCell id="xTU-l0KiYJfRe7PfPw5q-96" value="" style="rounded=0;whiteSpace=wrap;html=1;fontSize=15;" parent="1" vertex="1">
          <mxGeometry x="1197" y="120" width="870" height="330" as="geometry" />
        </mxCell>
        <mxCell id="xTU-l0KiYJfRe7PfPw5q-97" value="CONTROLLER" style="text;html=1;strokeColor=none;fillColor=none;align=center;verticalAlign=middle;whiteSpace=wrap;rounded=0;fontColor=#1D3557;" parent="1" vertex="1">
          <mxGeometry x="1232" y="170" width="80" height="20" as="geometry" />
        </mxCell>
        <mxCell id="xTU-l0KiYJfRe7PfPw5q-98" value="SERVICE" style="text;html=1;strokeColor=none;fillColor=none;align=center;verticalAlign=middle;whiteSpace=wrap;rounded=0;fontColor=#1D3557;" parent="1" vertex="1">
          <mxGeometry x="1232" y="230" width="80" height="20" as="geometry" />
        </mxCell>
        <mxCell id="xTU-l0KiYJfRe7PfPw5q-99" value="REPOSITORY" style="text;html=1;strokeColor=none;fillColor=none;align=center;verticalAlign=middle;whiteSpace=wrap;rounded=0;fontColor=#1D3557;" parent="1" vertex="1">
          <mxGeometry x="1232" y="315" width="80" height="20" as="geometry" />
        </mxCell>
        <mxCell id="xTU-l0KiYJfRe7PfPw5q-100" value="DB 테이블" style="text;html=1;strokeColor=none;fillColor=none;align=center;verticalAlign=middle;whiteSpace=wrap;rounded=0;fontColor=#1D3557;" parent="1" vertex="1">
          <mxGeometry x="1232" y="395" width="80" height="20" as="geometry" />
        </mxCell>
        <mxCell id="xTU-l0KiYJfRe7PfPw5q-101" value="" style="endArrow=none;html=1;rounded=0;labelBackgroundColor=#F1FAEE;strokeColor=#457B9D;fontColor=#1D3557;" parent="1" edge="1">
          <mxGeometry width="50" height="50" relative="1" as="geometry">
            <mxPoint x="1222" y="210" as="sourcePoint" />
            <mxPoint x="2021.9999999999995" y="210" as="targetPoint" />
          </mxGeometry>
        </mxCell>
        <mxCell id="xTU-l0KiYJfRe7PfPw5q-106" value="" style="edgeStyle=orthogonalEdgeStyle;curved=0;rounded=1;sketch=0;orthogonalLoop=1;jettySize=auto;html=1;fontSize=15;fontColor=#7EA6E0;strokeColor=#FF9999;fillColor=#A8DADC;" parent="1" source="xTU-l0KiYJfRe7PfPw5q-102" target="xTU-l0KiYJfRe7PfPw5q-105" edge="1">
          <mxGeometry relative="1" as="geometry">
            <Array as="points">
              <mxPoint x="1649" y="200" />
              <mxPoint x="1439" y="200" />
            </Array>
          </mxGeometry>
        </mxCell>
        <mxCell id="xTU-l0KiYJfRe7PfPw5q-108" value="" style="edgeStyle=orthogonalEdgeStyle;curved=0;rounded=1;sketch=0;orthogonalLoop=1;jettySize=auto;html=1;fontSize=15;fontColor=#7EA6E0;strokeColor=#7EA6E0;fillColor=#A8DADC;" parent="1" source="xTU-l0KiYJfRe7PfPw5q-102" target="xTU-l0KiYJfRe7PfPw5q-107" edge="1">
          <mxGeometry relative="1" as="geometry">
            <Array as="points">
              <mxPoint x="1649" y="290" />
              <mxPoint x="1589" y="290" />
            </Array>
          </mxGeometry>
        </mxCell>
        <mxCell id="xTU-l0KiYJfRe7PfPw5q-110" value="" style="edgeStyle=orthogonalEdgeStyle;curved=0;rounded=1;sketch=0;orthogonalLoop=1;jettySize=auto;html=1;fontSize=15;fontColor=#7EA6E0;strokeColor=#7EA6E0;fillColor=#A8DADC;" parent="1" source="xTU-l0KiYJfRe7PfPw5q-102" target="xTU-l0KiYJfRe7PfPw5q-109" edge="1">
          <mxGeometry relative="1" as="geometry">
            <Array as="points">
              <mxPoint x="1649" y="290" />
              <mxPoint x="1769" y="290" />
            </Array>
          </mxGeometry>
        </mxCell>
        <mxCell id="xTU-l0KiYJfRe7PfPw5q-102" value="CertificationController" style="text;html=1;strokeColor=none;fillColor=none;align=center;verticalAlign=middle;whiteSpace=wrap;rounded=0;fontSize=20;fontColor=#7EA6E0;" parent="1" vertex="1">
          <mxGeometry x="1560" y="150" width="178" height="30" as="geometry" />
        </mxCell>
        <mxCell id="xTU-l0KiYJfRe7PfPw5q-103" value="" style="endArrow=none;html=1;rounded=0;labelBackgroundColor=#F1FAEE;strokeColor=#457B9D;fontColor=#1D3557;" parent="1" edge="1">
          <mxGeometry width="50" height="50" relative="1" as="geometry">
            <mxPoint x="1222" y="270" as="sourcePoint" />
            <mxPoint x="2021.9999999999995" y="270" as="targetPoint" />
          </mxGeometry>
        </mxCell>
        <mxCell id="xTU-l0KiYJfRe7PfPw5q-104" value="" style="endArrow=none;html=1;rounded=0;labelBackgroundColor=#F1FAEE;strokeColor=#457B9D;fontColor=#1D3557;" parent="1" edge="1">
          <mxGeometry width="50" height="50" relative="1" as="geometry">
            <mxPoint x="1222" y="370" as="sourcePoint" />
            <mxPoint x="2021.9999999999995" y="370" as="targetPoint" />
          </mxGeometry>
        </mxCell>
        <mxCell id="xTU-l0KiYJfRe7PfPw5q-116" style="edgeStyle=orthogonalEdgeStyle;curved=0;rounded=1;sketch=0;orthogonalLoop=1;jettySize=auto;html=1;fontSize=15;fontColor=#7EA6E0;strokeColor=#FF9999;fillColor=#A8DADC;" parent="1" source="xTU-l0KiYJfRe7PfPw5q-105" edge="1">
          <mxGeometry relative="1" as="geometry">
            <mxPoint x="1590" y="290" as="targetPoint" />
            <Array as="points">
              <mxPoint x="1439" y="260" />
              <mxPoint x="1590" y="260" />
            </Array>
          </mxGeometry>
        </mxCell>
        <mxCell id="xTU-l0KiYJfRe7PfPw5q-105" value="EmailService" style="text;html=1;strokeColor=none;fillColor=none;align=center;verticalAlign=middle;whiteSpace=wrap;rounded=0;fontSize=15;fontColor=#7EA6E0;" parent="1" vertex="1">
          <mxGeometry x="1350" y="232.5" width="178" height="15" as="geometry" />
        </mxCell>
        <mxCell id="xTU-l0KiYJfRe7PfPw5q-112" value="" style="edgeStyle=orthogonalEdgeStyle;curved=0;rounded=1;sketch=0;orthogonalLoop=1;jettySize=auto;html=1;fontSize=15;fontColor=#7EA6E0;strokeColor=#7EA6E0;fillColor=#A8DADC;" parent="1" source="xTU-l0KiYJfRe7PfPw5q-107" target="xTU-l0KiYJfRe7PfPw5q-111" edge="1">
          <mxGeometry relative="1" as="geometry" />
        </mxCell>
        <mxCell id="xTU-l0KiYJfRe7PfPw5q-107" value="CertificationDao" style="text;html=1;strokeColor=none;fillColor=none;align=center;verticalAlign=middle;whiteSpace=wrap;rounded=0;fontSize=15;fontColor=#7EA6E0;" parent="1" vertex="1">
          <mxGeometry x="1500" y="310" width="178" height="30" as="geometry" />
        </mxCell>
        <mxCell id="xTU-l0KiYJfRe7PfPw5q-118" value="" style="edgeStyle=orthogonalEdgeStyle;curved=0;rounded=1;sketch=0;orthogonalLoop=1;jettySize=auto;html=1;fontSize=15;fontColor=#7EA6E0;strokeColor=#7EA6E0;fillColor=#A8DADC;" parent="1" source="xTU-l0KiYJfRe7PfPw5q-109" target="xTU-l0KiYJfRe7PfPw5q-117" edge="1">
          <mxGeometry relative="1" as="geometry" />
        </mxCell>
        <mxCell id="xTU-l0KiYJfRe7PfPw5q-109" value="MemberDao" style="text;html=1;strokeColor=none;fillColor=none;align=center;verticalAlign=middle;whiteSpace=wrap;rounded=0;fontSize=15;fontColor=#7EA6E0;" parent="1" vertex="1">
          <mxGeometry x="1678" y="310" width="178" height="30" as="geometry" />
        </mxCell>
        <mxCell id="xTU-l0KiYJfRe7PfPw5q-111" value="certification" style="text;html=1;strokeColor=none;fillColor=none;align=center;verticalAlign=middle;whiteSpace=wrap;rounded=0;fontSize=15;fontColor=#7EA6E0;" parent="1" vertex="1">
          <mxGeometry x="1500" y="390" width="178" height="30" as="geometry" />
        </mxCell>
        <mxCell id="xTU-l0KiYJfRe7PfPw5q-117" value="member" style="text;html=1;strokeColor=none;fillColor=none;align=center;verticalAlign=middle;whiteSpace=wrap;rounded=0;fontSize=15;fontColor=#7EA6E0;" parent="1" vertex="1">
          <mxGeometry x="1678" y="395" width="178" height="30" as="geometry" />
        </mxCell>
        <mxCell id="xTU-l0KiYJfRe7PfPw5q-122" value="CONTROLLER" style="text;html=1;strokeColor=none;fillColor=none;align=center;verticalAlign=middle;whiteSpace=wrap;rounded=0;fontColor=#1D3557;" parent="1" vertex="1">
          <mxGeometry x="1232" y="600" width="80" height="20" as="geometry" />
        </mxCell>
        <mxCell id="xTU-l0KiYJfRe7PfPw5q-123" value="SERVICE" style="text;html=1;strokeColor=none;fillColor=none;align=center;verticalAlign=middle;whiteSpace=wrap;rounded=0;fontColor=#1D3557;" parent="1" vertex="1">
          <mxGeometry x="1232" y="660" width="80" height="20" as="geometry" />
        </mxCell>
        <mxCell id="xTU-l0KiYJfRe7PfPw5q-124" value="REPOSITORY" style="text;html=1;strokeColor=none;fillColor=none;align=center;verticalAlign=middle;whiteSpace=wrap;rounded=0;fontColor=#1D3557;" parent="1" vertex="1">
          <mxGeometry x="1232" y="743.75" width="80" height="20" as="geometry" />
        </mxCell>
        <mxCell id="xTU-l0KiYJfRe7PfPw5q-125" value="DB 테이블" style="text;html=1;strokeColor=none;fillColor=none;align=center;verticalAlign=middle;whiteSpace=wrap;rounded=0;fontColor=#1D3557;" parent="1" vertex="1">
          <mxGeometry x="1232" y="825" width="80" height="20" as="geometry" />
        </mxCell>
        <mxCell id="xTU-l0KiYJfRe7PfPw5q-126" value="" style="endArrow=none;html=1;rounded=0;labelBackgroundColor=#F1FAEE;strokeColor=#457B9D;fontColor=#1D3557;" parent="1" edge="1">
          <mxGeometry width="50" height="50" relative="1" as="geometry">
            <mxPoint x="1222" y="640" as="sourcePoint" />
            <mxPoint x="2021.9999999999995" y="640" as="targetPoint" />
          </mxGeometry>
        </mxCell>
        <mxCell id="xTU-l0KiYJfRe7PfPw5q-131" value="" style="edgeStyle=orthogonalEdgeStyle;rounded=1;sketch=0;orthogonalLoop=1;jettySize=auto;html=1;fontSize=15;fontColor=#7EA6E0;strokeColor=#7EA6E0;fillColor=#A8DADC;" parent="1" source="xTU-l0KiYJfRe7PfPw5q-127" target="xTU-l0KiYJfRe7PfPw5q-130" edge="1">
          <mxGeometry relative="1" as="geometry">
            <Array as="points">
              <mxPoint x="1632" y="710" />
              <mxPoint x="1440" y="710" />
            </Array>
          </mxGeometry>
        </mxCell>
        <mxCell id="xTU-l0KiYJfRe7PfPw5q-133" value="" style="edgeStyle=orthogonalEdgeStyle;rounded=1;sketch=0;orthogonalLoop=1;jettySize=auto;html=1;fontSize=15;fontColor=#7EA6E0;strokeColor=#7EA6E0;fillColor=#A8DADC;" parent="1" source="xTU-l0KiYJfRe7PfPw5q-127" target="xTU-l0KiYJfRe7PfPw5q-132" edge="1">
          <mxGeometry relative="1" as="geometry">
            <Array as="points">
              <mxPoint x="1632" y="710" />
              <mxPoint x="1594" y="710" />
            </Array>
          </mxGeometry>
        </mxCell>
        <mxCell id="xTU-l0KiYJfRe7PfPw5q-135" value="" style="edgeStyle=orthogonalEdgeStyle;rounded=1;sketch=0;orthogonalLoop=1;jettySize=auto;html=1;fontSize=15;fontColor=#7EA6E0;strokeColor=#7EA6E0;fillColor=#A8DADC;" parent="1" source="xTU-l0KiYJfRe7PfPw5q-127" target="xTU-l0KiYJfRe7PfPw5q-134" edge="1">
          <mxGeometry relative="1" as="geometry">
            <Array as="points">
              <mxPoint x="1632" y="710" />
              <mxPoint x="1752" y="710" />
            </Array>
          </mxGeometry>
        </mxCell>
        <mxCell id="xTU-l0KiYJfRe7PfPw5q-137" value="" style="edgeStyle=orthogonalEdgeStyle;rounded=1;sketch=0;orthogonalLoop=1;jettySize=auto;html=1;fontSize=15;fontColor=#7EA6E0;strokeColor=#7EA6E0;fillColor=#A8DADC;entryX=0.5;entryY=0;entryDx=0;entryDy=0;" parent="1" source="xTU-l0KiYJfRe7PfPw5q-127" target="xTU-l0KiYJfRe7PfPw5q-136" edge="1">
          <mxGeometry relative="1" as="geometry">
            <Array as="points">
              <mxPoint x="1632" y="710" />
              <mxPoint x="1860" y="710" />
            </Array>
          </mxGeometry>
        </mxCell>
        <mxCell id="xTU-l0KiYJfRe7PfPw5q-127" value="CheckAndChartAjaxController" style="text;html=1;strokeColor=none;fillColor=none;align=center;verticalAlign=middle;whiteSpace=wrap;rounded=0;fontSize=20;fontColor=#7EA6E0;" parent="1" vertex="1">
          <mxGeometry x="1572" y="580" width="120" height="30" as="geometry" />
        </mxCell>
        <mxCell id="xTU-l0KiYJfRe7PfPw5q-128" value="" style="endArrow=none;html=1;rounded=0;labelBackgroundColor=#F1FAEE;strokeColor=#457B9D;fontColor=#1D3557;" parent="1" edge="1">
          <mxGeometry width="50" height="50" relative="1" as="geometry">
            <mxPoint x="1222" y="700" as="sourcePoint" />
            <mxPoint x="2021.9999999999995" y="700" as="targetPoint" />
          </mxGeometry>
        </mxCell>
        <mxCell id="xTU-l0KiYJfRe7PfPw5q-129" value="" style="endArrow=none;html=1;rounded=0;labelBackgroundColor=#F1FAEE;strokeColor=#457B9D;fontColor=#1D3557;" parent="1" edge="1">
          <mxGeometry width="50" height="50" relative="1" as="geometry">
            <mxPoint x="1222" y="800" as="sourcePoint" />
            <mxPoint x="2021.9999999999995" y="800" as="targetPoint" />
          </mxGeometry>
        </mxCell>
        <mxCell id="xTU-l0KiYJfRe7PfPw5q-139" value="" style="edgeStyle=orthogonalEdgeStyle;rounded=1;sketch=0;orthogonalLoop=1;jettySize=auto;html=1;fontSize=15;fontColor=#7EA6E0;strokeColor=#7EA6E0;fillColor=#A8DADC;" parent="1" source="xTU-l0KiYJfRe7PfPw5q-130" target="xTU-l0KiYJfRe7PfPw5q-138" edge="1">
          <mxGeometry relative="1" as="geometry" />
        </mxCell>
        <mxCell id="xTU-l0KiYJfRe7PfPw5q-130" value="MemberDao" style="text;html=1;strokeColor=none;fillColor=none;align=center;verticalAlign=middle;whiteSpace=wrap;rounded=0;fontSize=15;fontColor=#7EA6E0;" parent="1" vertex="1">
          <mxGeometry x="1380" y="738.75" width="120" height="30" as="geometry" />
        </mxCell>
        <mxCell id="xTU-l0KiYJfRe7PfPw5q-141" value="" style="edgeStyle=orthogonalEdgeStyle;rounded=1;sketch=0;orthogonalLoop=1;jettySize=auto;html=1;fontSize=15;fontColor=#7EA6E0;strokeColor=#7EA6E0;fillColor=#A8DADC;" parent="1" source="xTU-l0KiYJfRe7PfPw5q-132" target="xTU-l0KiYJfRe7PfPw5q-140" edge="1">
          <mxGeometry relative="1" as="geometry" />
        </mxCell>
        <mxCell id="xTU-l0KiYJfRe7PfPw5q-132" value="VisitDao" style="text;html=1;strokeColor=none;fillColor=none;align=center;verticalAlign=middle;whiteSpace=wrap;rounded=0;fontSize=15;fontColor=#7EA6E0;" parent="1" vertex="1">
          <mxGeometry x="1534" y="738.75" width="120" height="30" as="geometry" />
        </mxCell>
        <mxCell id="xTU-l0KiYJfRe7PfPw5q-143" value="" style="edgeStyle=orthogonalEdgeStyle;rounded=1;sketch=0;orthogonalLoop=1;jettySize=auto;html=1;fontSize=15;fontColor=#7EA6E0;strokeColor=#7EA6E0;fillColor=#A8DADC;" parent="1" source="xTU-l0KiYJfRe7PfPw5q-134" target="xTU-l0KiYJfRe7PfPw5q-142" edge="1">
          <mxGeometry relative="1" as="geometry" />
        </mxCell>
        <mxCell id="xTU-l0KiYJfRe7PfPw5q-134" value="PaymentDao" style="text;html=1;strokeColor=none;fillColor=none;align=center;verticalAlign=middle;whiteSpace=wrap;rounded=0;fontSize=15;fontColor=#7EA6E0;" parent="1" vertex="1">
          <mxGeometry x="1660" y="740" width="120" height="30" as="geometry" />
        </mxCell>
        <mxCell id="xTU-l0KiYJfRe7PfPw5q-147" value="" style="edgeStyle=orthogonalEdgeStyle;rounded=1;sketch=0;orthogonalLoop=1;jettySize=auto;html=1;fontSize=15;fontColor=#7EA6E0;strokeColor=#7EA6E0;fillColor=#A8DADC;" parent="1" source="xTU-l0KiYJfRe7PfPw5q-136" target="xTU-l0KiYJfRe7PfPw5q-146" edge="1">
          <mxGeometry relative="1" as="geometry" />
        </mxCell>
        <mxCell id="xTU-l0KiYJfRe7PfPw5q-136" value="AutoDonationDao" style="text;html=1;strokeColor=none;fillColor=none;align=center;verticalAlign=middle;whiteSpace=wrap;rounded=0;fontSize=15;fontColor=#7EA6E0;" parent="1" vertex="1">
          <mxGeometry x="1800" y="743.75" width="120" height="30" as="geometry" />
        </mxCell>
        <mxCell id="xTU-l0KiYJfRe7PfPw5q-138" value="member" style="text;html=1;strokeColor=none;fillColor=none;align=center;verticalAlign=middle;whiteSpace=wrap;rounded=0;fontSize=15;fontColor=#7EA6E0;" parent="1" vertex="1">
          <mxGeometry x="1380" y="822.5" width="120" height="30" as="geometry" />
        </mxCell>
        <mxCell id="xTU-l0KiYJfRe7PfPw5q-140" value="visit" style="text;html=1;strokeColor=none;fillColor=none;align=center;verticalAlign=middle;whiteSpace=wrap;rounded=0;fontSize=15;fontColor=#7EA6E0;" parent="1" vertex="1">
          <mxGeometry x="1534" y="822.5" width="120" height="30" as="geometry" />
        </mxCell>
        <mxCell id="xTU-l0KiYJfRe7PfPw5q-142" value="payment" style="text;html=1;strokeColor=none;fillColor=none;align=center;verticalAlign=middle;whiteSpace=wrap;rounded=0;fontSize=15;fontColor=#7EA6E0;" parent="1" vertex="1">
          <mxGeometry x="1660" y="822.5" width="120" height="30" as="geometry" />
        </mxCell>
        <mxCell id="xTU-l0KiYJfRe7PfPw5q-146" value="autopayment" style="text;html=1;strokeColor=none;fillColor=none;align=center;verticalAlign=middle;whiteSpace=wrap;rounded=0;fontSize=15;fontColor=#7EA6E0;" parent="1" vertex="1">
          <mxGeometry x="1800" y="820" width="120" height="30" as="geometry" />
        </mxCell>
        <mxCell id="xTU-l0KiYJfRe7PfPw5q-149" value="CertificationDao" style="text;html=1;strokeColor=none;fillColor=none;align=center;verticalAlign=middle;whiteSpace=wrap;rounded=0;fontSize=15;fontColor=#7EA6E0;" parent="1" vertex="1">
          <mxGeometry x="362.5" y="741.25" width="120" height="15" as="geometry" />
        </mxCell>
        <mxCell id="xTU-l0KiYJfRe7PfPw5q-150" value="MemberDao" style="text;html=1;strokeColor=none;fillColor=none;align=center;verticalAlign=middle;whiteSpace=wrap;rounded=0;fontSize=15;fontColor=#7EA6E0;" parent="1" vertex="1">
          <mxGeometry x="512.5" y="735" width="120" height="27.5" as="geometry" />
        </mxCell>
        <mxCell id="xTU-l0KiYJfRe7PfPw5q-151" value="" style="rounded=0;whiteSpace=wrap;html=1;fontSize=15;" parent="1" vertex="1">
          <mxGeometry x="2180" y="120" width="870" height="330" as="geometry" />
        </mxCell>
        <mxCell id="xTU-l0KiYJfRe7PfPw5q-152" value="CONTROLLER" style="text;html=1;strokeColor=none;fillColor=none;align=center;verticalAlign=middle;whiteSpace=wrap;rounded=0;fontColor=#1D3557;" parent="1" vertex="1">
          <mxGeometry x="2215" y="170" width="80" height="20" as="geometry" />
        </mxCell>
        <mxCell id="xTU-l0KiYJfRe7PfPw5q-153" value="SERVICE" style="text;html=1;strokeColor=none;fillColor=none;align=center;verticalAlign=middle;whiteSpace=wrap;rounded=0;fontColor=#1D3557;" parent="1" vertex="1">
          <mxGeometry x="2215" y="230" width="80" height="20" as="geometry" />
        </mxCell>
        <mxCell id="xTU-l0KiYJfRe7PfPw5q-154" value="REPOSITORY" style="text;html=1;strokeColor=none;fillColor=none;align=center;verticalAlign=middle;whiteSpace=wrap;rounded=0;fontColor=#1D3557;" parent="1" vertex="1">
          <mxGeometry x="2215" y="310" width="80" height="20" as="geometry" />
        </mxCell>
        <mxCell id="xTU-l0KiYJfRe7PfPw5q-155" value="DB 테이블" style="text;html=1;strokeColor=none;fillColor=none;align=center;verticalAlign=middle;whiteSpace=wrap;rounded=0;fontColor=#1D3557;" parent="1" vertex="1">
          <mxGeometry x="2215" y="395" width="80" height="20" as="geometry" />
        </mxCell>
        <mxCell id="xTU-l0KiYJfRe7PfPw5q-156" value="" style="endArrow=none;html=1;rounded=0;labelBackgroundColor=#F1FAEE;strokeColor=#457B9D;fontColor=#1D3557;" parent="1" edge="1">
          <mxGeometry width="50" height="50" relative="1" as="geometry">
            <mxPoint x="2205" y="210" as="sourcePoint" />
            <mxPoint x="3005" y="210" as="targetPoint" />
          </mxGeometry>
        </mxCell>
        <mxCell id="xTU-l0KiYJfRe7PfPw5q-161" value="" style="edgeStyle=orthogonalEdgeStyle;rounded=1;sketch=0;orthogonalLoop=1;jettySize=auto;html=1;fontSize=15;fontColor=#7EA6E0;strokeColor=#7EA6E0;fillColor=#A8DADC;" parent="1" source="xTU-l0KiYJfRe7PfPw5q-157" target="xTU-l0KiYJfRe7PfPw5q-160" edge="1">
          <mxGeometry relative="1" as="geometry" />
        </mxCell>
        <mxCell id="xTU-l0KiYJfRe7PfPw5q-163" value="" style="edgeStyle=orthogonalEdgeStyle;rounded=1;sketch=0;orthogonalLoop=1;jettySize=auto;html=1;fontSize=15;fontColor=#7EA6E0;strokeColor=#FF9999;fillColor=#A8DADC;" parent="1" source="xTU-l0KiYJfRe7PfPw5q-157" target="xTU-l0KiYJfRe7PfPw5q-162" edge="1">
          <mxGeometry relative="1" as="geometry" />
        </mxCell>
        <mxCell id="xTU-l0KiYJfRe7PfPw5q-157" value="AdminController" style="text;html=1;strokeColor=none;fillColor=none;align=center;verticalAlign=middle;whiteSpace=wrap;rounded=0;fontSize=20;fontColor=#7EA6E0;" parent="1" vertex="1">
          <mxGeometry x="2555" y="150" width="120" height="30" as="geometry" />
        </mxCell>
        <mxCell id="xTU-l0KiYJfRe7PfPw5q-158" value="" style="endArrow=none;html=1;rounded=0;labelBackgroundColor=#F1FAEE;strokeColor=#457B9D;fontColor=#1D3557;" parent="1" edge="1">
          <mxGeometry width="50" height="50" relative="1" as="geometry">
            <mxPoint x="2205" y="270" as="sourcePoint" />
            <mxPoint x="3005" y="270" as="targetPoint" />
          </mxGeometry>
        </mxCell>
        <mxCell id="xTU-l0KiYJfRe7PfPw5q-159" value="" style="endArrow=none;html=1;rounded=0;labelBackgroundColor=#F1FAEE;strokeColor=#457B9D;fontColor=#1D3557;" parent="1" edge="1">
          <mxGeometry width="50" height="50" relative="1" as="geometry">
            <mxPoint x="2205" y="370" as="sourcePoint" />
            <mxPoint x="3005" y="370" as="targetPoint" />
          </mxGeometry>
        </mxCell>
        <mxCell id="xTU-l0KiYJfRe7PfPw5q-166" value="" style="edgeStyle=orthogonalEdgeStyle;rounded=1;sketch=0;orthogonalLoop=1;jettySize=auto;html=1;fontSize=15;fontColor=#7EA6E0;strokeColor=#7EA6E0;fillColor=#A8DADC;" parent="1" source="xTU-l0KiYJfRe7PfPw5q-160" target="xTU-l0KiYJfRe7PfPw5q-165" edge="1">
          <mxGeometry relative="1" as="geometry" />
        </mxCell>
        <mxCell id="xTU-l0KiYJfRe7PfPw5q-160" value="MemberDao" style="text;html=1;strokeColor=none;fillColor=none;align=center;verticalAlign=middle;whiteSpace=wrap;rounded=0;fontSize=15;fontColor=#7EA6E0;" parent="1" vertex="1">
          <mxGeometry x="2555" y="307.5" width="120" height="25" as="geometry" />
        </mxCell>
        <mxCell id="xTU-l0KiYJfRe7PfPw5q-164" style="edgeStyle=orthogonalEdgeStyle;rounded=1;sketch=0;orthogonalLoop=1;jettySize=auto;html=1;entryX=0.638;entryY=0.014;entryDx=0;entryDy=0;entryPerimeter=0;fontSize=15;fontColor=#7EA6E0;strokeColor=#FF9999;fillColor=#A8DADC;" parent="1" source="xTU-l0KiYJfRe7PfPw5q-162" target="xTU-l0KiYJfRe7PfPw5q-160" edge="1">
          <mxGeometry relative="1" as="geometry" />
        </mxCell>
        <mxCell id="xTU-l0KiYJfRe7PfPw5q-162" value="PaginationService" style="text;html=1;strokeColor=none;fillColor=none;align=center;verticalAlign=middle;whiteSpace=wrap;rounded=0;fontSize=15;fontColor=#7EA6E0;" parent="1" vertex="1">
          <mxGeometry x="2670" y="225" width="120" height="30" as="geometry" />
        </mxCell>
        <mxCell id="xTU-l0KiYJfRe7PfPw5q-165" value="MemberDao" style="text;html=1;strokeColor=none;fillColor=none;align=center;verticalAlign=middle;whiteSpace=wrap;rounded=0;fontSize=15;fontColor=#7EA6E0;" parent="1" vertex="1">
          <mxGeometry x="2555" y="400" width="120" height="25" as="geometry" />
        </mxCell>
        <mxCell id="xTU-l0KiYJfRe7PfPw5q-167" value="" style="rounded=0;whiteSpace=wrap;html=1;fontSize=15;" parent="1" vertex="1">
          <mxGeometry x="2180" y="550" width="870" height="330" as="geometry" />
        </mxCell>
        <mxCell id="xTU-l0KiYJfRe7PfPw5q-168" value="CONTROLLER" style="text;html=1;strokeColor=none;fillColor=none;align=center;verticalAlign=middle;whiteSpace=wrap;rounded=0;fontColor=#1D3557;" parent="1" vertex="1">
          <mxGeometry x="2215" y="600" width="80" height="20" as="geometry" />
        </mxCell>
        <mxCell id="xTU-l0KiYJfRe7PfPw5q-169" value="SERVICE" style="text;html=1;strokeColor=none;fillColor=none;align=center;verticalAlign=middle;whiteSpace=wrap;rounded=0;fontColor=#1D3557;" parent="1" vertex="1">
          <mxGeometry x="2215" y="660" width="80" height="20" as="geometry" />
        </mxCell>
        <mxCell id="xTU-l0KiYJfRe7PfPw5q-170" value="REPOSITORY" style="text;html=1;strokeColor=none;fillColor=none;align=center;verticalAlign=middle;whiteSpace=wrap;rounded=0;fontColor=#1D3557;" parent="1" vertex="1">
          <mxGeometry x="2215" y="740" width="80" height="20" as="geometry" />
        </mxCell>
        <mxCell id="xTU-l0KiYJfRe7PfPw5q-171" value="DB 테이블" style="text;html=1;strokeColor=none;fillColor=none;align=center;verticalAlign=middle;whiteSpace=wrap;rounded=0;fontColor=#1D3557;" parent="1" vertex="1">
          <mxGeometry x="2215" y="825" width="80" height="20" as="geometry" />
        </mxCell>
        <mxCell id="xTU-l0KiYJfRe7PfPw5q-172" value="" style="endArrow=none;html=1;rounded=0;labelBackgroundColor=#F1FAEE;strokeColor=#457B9D;fontColor=#1D3557;" parent="1" edge="1">
          <mxGeometry width="50" height="50" relative="1" as="geometry">
            <mxPoint x="2205" y="640" as="sourcePoint" />
            <mxPoint x="3005" y="640" as="targetPoint" />
          </mxGeometry>
        </mxCell>
        <mxCell id="xTU-l0KiYJfRe7PfPw5q-177" value="" style="edgeStyle=orthogonalEdgeStyle;rounded=1;sketch=0;orthogonalLoop=1;jettySize=auto;html=1;fontSize=15;fontColor=#7EA6E0;strokeColor=#FF9999;fillColor=#A8DADC;" parent="1" source="xTU-l0KiYJfRe7PfPw5q-173" target="xTU-l0KiYJfRe7PfPw5q-176" edge="1">
          <mxGeometry relative="1" as="geometry">
            <Array as="points">
              <mxPoint x="2600" y="630" />
              <mxPoint x="2840" y="630" />
            </Array>
          </mxGeometry>
        </mxCell>
        <mxCell id="xTU-l0KiYJfRe7PfPw5q-179" value="" style="edgeStyle=orthogonalEdgeStyle;rounded=1;sketch=0;orthogonalLoop=1;jettySize=auto;html=1;fontSize=15;fontColor=#7EA6E0;strokeColor=#7EA6E0;fillColor=#A8DADC;" parent="1" source="xTU-l0KiYJfRe7PfPw5q-173" target="xTU-l0KiYJfRe7PfPw5q-178" edge="1">
          <mxGeometry relative="1" as="geometry">
            <Array as="points">
              <mxPoint x="2615" y="710" />
              <mxPoint x="2511" y="710" />
            </Array>
          </mxGeometry>
        </mxCell>
        <mxCell id="xTU-l0KiYJfRe7PfPw5q-181" value="" style="edgeStyle=orthogonalEdgeStyle;rounded=1;sketch=0;orthogonalLoop=1;jettySize=auto;html=1;fontSize=15;fontColor=#7EA6E0;strokeColor=#7EA6E0;fillColor=#A8DADC;" parent="1" source="xTU-l0KiYJfRe7PfPw5q-173" target="xTU-l0KiYJfRe7PfPw5q-180" edge="1">
          <mxGeometry relative="1" as="geometry">
            <Array as="points">
              <mxPoint x="2615" y="710" />
              <mxPoint x="2740" y="710" />
            </Array>
          </mxGeometry>
        </mxCell>
        <mxCell id="xTU-l0KiYJfRe7PfPw5q-173" value="MybabyController" style="text;html=1;strokeColor=none;fillColor=none;align=center;verticalAlign=middle;whiteSpace=wrap;rounded=0;fontSize=20;fontColor=#7EA6E0;" parent="1" vertex="1">
          <mxGeometry x="2555" y="580" width="120" height="30" as="geometry" />
        </mxCell>
        <mxCell id="xTU-l0KiYJfRe7PfPw5q-174" value="" style="endArrow=none;html=1;rounded=0;labelBackgroundColor=#F1FAEE;strokeColor=#457B9D;fontColor=#1D3557;" parent="1" edge="1">
          <mxGeometry width="50" height="50" relative="1" as="geometry">
            <mxPoint x="2205" y="700" as="sourcePoint" />
            <mxPoint x="3005" y="700" as="targetPoint" />
          </mxGeometry>
        </mxCell>
        <mxCell id="xTU-l0KiYJfRe7PfPw5q-175" value="" style="endArrow=none;html=1;rounded=0;labelBackgroundColor=#F1FAEE;strokeColor=#457B9D;fontColor=#1D3557;" parent="1" edge="1">
          <mxGeometry width="50" height="50" relative="1" as="geometry">
            <mxPoint x="2205" y="800" as="sourcePoint" />
            <mxPoint x="3005" y="800" as="targetPoint" />
          </mxGeometry>
        </mxCell>
        <mxCell id="xTU-l0KiYJfRe7PfPw5q-182" style="edgeStyle=orthogonalEdgeStyle;rounded=1;sketch=0;orthogonalLoop=1;jettySize=auto;html=1;fontSize=15;fontColor=#7EA6E0;strokeColor=#FF9999;fillColor=#A8DADC;" parent="1" source="xTU-l0KiYJfRe7PfPw5q-176" edge="1">
          <mxGeometry relative="1" as="geometry">
            <mxPoint x="2510" y="710" as="targetPoint" />
            <Array as="points">
              <mxPoint x="2830" y="690" />
              <mxPoint x="2510" y="690" />
            </Array>
          </mxGeometry>
        </mxCell>
        <mxCell id="xTU-l0KiYJfRe7PfPw5q-241" style="edgeStyle=orthogonalEdgeStyle;rounded=1;sketch=0;orthogonalLoop=1;jettySize=auto;html=1;fontSize=15;fontColor=#7EA6E0;strokeColor=#FF9999;fillColor=#A8DADC;" parent="1" source="xTU-l0KiYJfRe7PfPw5q-176" edge="1">
          <mxGeometry relative="1" as="geometry">
            <mxPoint x="2739.9999999999995" y="710" as="targetPoint" />
            <Array as="points">
              <mxPoint x="2830" y="690" />
              <mxPoint x="2740" y="690" />
            </Array>
          </mxGeometry>
        </mxCell>
        <mxCell id="xTU-l0KiYJfRe7PfPw5q-176" value="MybabyFileService" style="text;html=1;strokeColor=none;fillColor=none;align=center;verticalAlign=middle;whiteSpace=wrap;rounded=0;fontSize=15;fontColor=#7EA6E0;" parent="1" vertex="1">
          <mxGeometry x="2770" y="650" width="120" height="30" as="geometry" />
        </mxCell>
        <mxCell id="xTU-l0KiYJfRe7PfPw5q-184" value="" style="edgeStyle=orthogonalEdgeStyle;rounded=1;sketch=0;orthogonalLoop=1;jettySize=auto;html=1;fontSize=15;fontColor=#7EA6E0;strokeColor=#7EA6E0;fillColor=#A8DADC;" parent="1" source="xTU-l0KiYJfRe7PfPw5q-178" target="xTU-l0KiYJfRe7PfPw5q-183" edge="1">
          <mxGeometry relative="1" as="geometry" />
        </mxCell>
        <mxCell id="xTU-l0KiYJfRe7PfPw5q-178" value="MybabyDao" style="text;html=1;strokeColor=none;fillColor=none;align=center;verticalAlign=middle;whiteSpace=wrap;rounded=0;fontSize=15;fontColor=#7EA6E0;" parent="1" vertex="1">
          <mxGeometry x="2451" y="735" width="120" height="30" as="geometry" />
        </mxCell>
        <mxCell id="xTU-l0KiYJfRe7PfPw5q-186" value="" style="edgeStyle=orthogonalEdgeStyle;rounded=1;sketch=0;orthogonalLoop=1;jettySize=auto;html=1;fontSize=15;fontColor=#7EA6E0;strokeColor=#7EA6E0;fillColor=#A8DADC;" parent="1" source="xTU-l0KiYJfRe7PfPw5q-180" target="xTU-l0KiYJfRe7PfPw5q-185" edge="1">
          <mxGeometry relative="1" as="geometry" />
        </mxCell>
        <mxCell id="xTU-l0KiYJfRe7PfPw5q-188" value="" style="edgeStyle=orthogonalEdgeStyle;rounded=1;sketch=0;orthogonalLoop=1;jettySize=auto;html=1;fontSize=15;fontColor=#7EA6E0;strokeColor=#FF9999;fillColor=#A8DADC;" parent="1" source="xTU-l0KiYJfRe7PfPw5q-180" target="xTU-l0KiYJfRe7PfPw5q-187" edge="1">
          <mxGeometry relative="1" as="geometry">
            <Array as="points">
              <mxPoint x="2740" y="790" />
              <mxPoint x="2930" y="790" />
            </Array>
          </mxGeometry>
        </mxCell>
        <mxCell id="xTU-l0KiYJfRe7PfPw5q-180" value="MybabyImgDao" style="text;html=1;strokeColor=none;fillColor=none;align=center;verticalAlign=middle;whiteSpace=wrap;rounded=0;fontSize=15;fontColor=#7EA6E0;" parent="1" vertex="1">
          <mxGeometry x="2680" y="735" width="120" height="30" as="geometry" />
        </mxCell>
        <mxCell id="xTU-l0KiYJfRe7PfPw5q-183" value="mybaby" style="text;html=1;strokeColor=none;fillColor=none;align=center;verticalAlign=middle;whiteSpace=wrap;rounded=0;fontSize=15;fontColor=#7EA6E0;" parent="1" vertex="1">
          <mxGeometry x="2451" y="825" width="120" height="20" as="geometry" />
        </mxCell>
        <mxCell id="xTU-l0KiYJfRe7PfPw5q-185" value="mybaby_img" style="text;html=1;strokeColor=none;fillColor=none;align=center;verticalAlign=middle;whiteSpace=wrap;rounded=0;fontSize=15;fontColor=#7EA6E0;" parent="1" vertex="1">
          <mxGeometry x="2680" y="830" width="120" height="15" as="geometry" />
        </mxCell>
        <mxCell id="xTU-l0KiYJfRe7PfPw5q-187" value="D:\dev\ttamna\mybaby" style="text;html=1;strokeColor=none;fillColor=none;align=center;verticalAlign=middle;whiteSpace=wrap;rounded=0;fontSize=15;fontColor=#FF9999;" parent="1" vertex="1">
          <mxGeometry x="2880" y="825" width="120" height="30" as="geometry" />
        </mxCell>
        <mxCell id="xTU-l0KiYJfRe7PfPw5q-190" value="" style="endArrow=none;html=1;rounded=1;sketch=0;fontSize=15;fontColor=#7EA6E0;strokeColor=#7EA6E0;fillColor=#A8DADC;" parent="1" edge="1">
          <mxGeometry width="50" height="50" relative="1" as="geometry">
            <mxPoint x="2850" y="880" as="sourcePoint" />
            <mxPoint x="2850" y="800" as="targetPoint" />
          </mxGeometry>
        </mxCell>
        <mxCell id="xTU-l0KiYJfRe7PfPw5q-194" value="" style="edgeStyle=orthogonalEdgeStyle;rounded=1;sketch=0;orthogonalLoop=1;jettySize=auto;html=1;fontSize=15;fontColor=#7EA6E0;strokeColor=#7EA6E0;fillColor=#A8DADC;" parent="1" source="xTU-l0KiYJfRe7PfPw5q-191" target="xTU-l0KiYJfRe7PfPw5q-193" edge="1">
          <mxGeometry relative="1" as="geometry" />
        </mxCell>
        <mxCell id="xTU-l0KiYJfRe7PfPw5q-191" value="QuestionDao" style="text;html=1;strokeColor=none;fillColor=none;align=center;verticalAlign=middle;whiteSpace=wrap;rounded=0;fontSize=15;fontColor=#7EA6E0;" parent="1" vertex="1">
          <mxGeometry x="513" y="1195" width="120" height="30" as="geometry" />
        </mxCell>
        <mxCell id="xTU-l0KiYJfRe7PfPw5q-193" value="question" style="text;html=1;strokeColor=none;fillColor=none;align=center;verticalAlign=middle;whiteSpace=wrap;rounded=0;fontSize=15;fontColor=#7EA6E0;" parent="1" vertex="1">
          <mxGeometry x="513" y="1280" width="120" height="30" as="geometry" />
        </mxCell>
        <mxCell id="xTU-l0KiYJfRe7PfPw5q-195" value="" style="endArrow=none;html=1;rounded=1;labelBackgroundColor=#F1FAEE;strokeColor=#457B9D;fontColor=#1D3557;exitX=0.03;exitY=0.273;exitDx=0;exitDy=0;exitPerimeter=0;" parent="1" edge="1">
          <mxGeometry width="50" height="50" relative="1" as="geometry">
            <mxPoint x="109.55000000000018" y="270.09000000000003" as="sourcePoint" />
            <mxPoint x="1020" y="270" as="targetPoint" />
          </mxGeometry>
        </mxCell>
        <mxCell id="xTU-l0KiYJfRe7PfPw5q-196" value="" style="endArrow=none;html=1;rounded=1;labelBackgroundColor=#F1FAEE;strokeColor=#457B9D;fontColor=#1D3557;exitX=0.03;exitY=0.273;exitDx=0;exitDy=0;exitPerimeter=0;" parent="1" edge="1">
          <mxGeometry width="50" height="50" relative="1" as="geometry">
            <mxPoint x="109.55000000000018" y="360.09000000000003" as="sourcePoint" />
            <mxPoint x="1020" y="360" as="targetPoint" />
          </mxGeometry>
        </mxCell>
        <mxCell id="xTU-l0KiYJfRe7PfPw5q-200" value="" style="edgeStyle=orthogonalEdgeStyle;rounded=1;sketch=0;orthogonalLoop=1;jettySize=auto;html=1;fontSize=15;fontColor=#7EA6E0;strokeColor=#7EA6E0;fillColor=#A8DADC;" parent="1" source="xTU-l0KiYJfRe7PfPw5q-197" target="xTU-l0KiYJfRe7PfPw5q-199" edge="1">
          <mxGeometry relative="1" as="geometry" />
        </mxCell>
        <mxCell id="xTU-l0KiYJfRe7PfPw5q-197" value="AutodonationDao" style="text;html=1;strokeColor=none;fillColor=none;align=center;verticalAlign=middle;whiteSpace=wrap;rounded=0;fontSize=15;fontColor=#7EA6E0;" parent="1" vertex="1">
          <mxGeometry x="230" y="315" width="120" height="20" as="geometry" />
        </mxCell>
        <mxCell id="xTU-l0KiYJfRe7PfPw5q-199" value="apm(autopayment)" style="text;html=1;strokeColor=none;fillColor=none;align=center;verticalAlign=middle;whiteSpace=wrap;rounded=0;fontSize=15;fontColor=#7EA6E0;" parent="1" vertex="1">
          <mxGeometry x="230" y="395" width="120" height="20" as="geometry" />
        </mxCell>
        <mxCell id="xTU-l0KiYJfRe7PfPw5q-203" value="" style="rounded=0;whiteSpace=wrap;html=1;fontSize=15;" parent="1" vertex="1">
          <mxGeometry x="1197.5" y="1010" width="870" height="330" as="geometry" />
        </mxCell>
        <mxCell id="xTU-l0KiYJfRe7PfPw5q-204" value="CONTROLLER" style="text;html=1;strokeColor=none;fillColor=none;align=center;verticalAlign=middle;whiteSpace=wrap;rounded=0;fontColor=#1D3557;" parent="1" vertex="1">
          <mxGeometry x="1232.5" y="1060" width="80" height="20" as="geometry" />
        </mxCell>
        <mxCell id="xTU-l0KiYJfRe7PfPw5q-205" value="SERVICE" style="text;html=1;strokeColor=none;fillColor=none;align=center;verticalAlign=middle;whiteSpace=wrap;rounded=0;fontColor=#1D3557;" parent="1" vertex="1">
          <mxGeometry x="1232.5" y="1120" width="80" height="20" as="geometry" />
        </mxCell>
        <mxCell id="xTU-l0KiYJfRe7PfPw5q-206" value="REPOSITORY" style="text;html=1;strokeColor=none;fillColor=none;align=center;verticalAlign=middle;whiteSpace=wrap;rounded=0;fontColor=#1D3557;" parent="1" vertex="1">
          <mxGeometry x="1232.5" y="1200" width="80" height="20" as="geometry" />
        </mxCell>
        <mxCell id="xTU-l0KiYJfRe7PfPw5q-207" value="DB 테이블" style="text;html=1;strokeColor=none;fillColor=none;align=center;verticalAlign=middle;whiteSpace=wrap;rounded=0;fontColor=#1D3557;" parent="1" vertex="1">
          <mxGeometry x="1232.5" y="1285" width="80" height="20" as="geometry" />
        </mxCell>
        <mxCell id="xTU-l0KiYJfRe7PfPw5q-208" value="" style="endArrow=none;html=1;rounded=0;labelBackgroundColor=#F1FAEE;strokeColor=#457B9D;fontColor=#1D3557;" parent="1" edge="1">
          <mxGeometry width="50" height="50" relative="1" as="geometry">
            <mxPoint x="1222.5" y="1100" as="sourcePoint" />
            <mxPoint x="2022.4999999999995" y="1100" as="targetPoint" />
          </mxGeometry>
        </mxCell>
        <mxCell id="xTU-l0KiYJfRe7PfPw5q-209" value="" style="edgeStyle=orthogonalEdgeStyle;rounded=1;sketch=0;orthogonalLoop=1;jettySize=auto;html=1;fontSize=15;fontColor=#7EA6E0;strokeColor=#7EA6E0;fillColor=#A8DADC;" parent="1" source="xTU-l0KiYJfRe7PfPw5q-210" target="xTU-l0KiYJfRe7PfPw5q-214" edge="1">
          <mxGeometry relative="1" as="geometry" />
        </mxCell>
        <mxCell id="xTU-l0KiYJfRe7PfPw5q-210" value="QuestionReplyController" style="text;html=1;strokeColor=none;fillColor=none;align=center;verticalAlign=middle;whiteSpace=wrap;rounded=0;fontSize=20;fontColor=#7EA6E0;" parent="1" vertex="1">
          <mxGeometry x="1572.5" y="1040" width="120" height="30" as="geometry" />
        </mxCell>
        <mxCell id="xTU-l0KiYJfRe7PfPw5q-211" value="" style="endArrow=none;html=1;rounded=0;labelBackgroundColor=#F1FAEE;strokeColor=#457B9D;fontColor=#1D3557;" parent="1" edge="1">
          <mxGeometry width="50" height="50" relative="1" as="geometry">
            <mxPoint x="1222.5" y="1160" as="sourcePoint" />
            <mxPoint x="2022.4999999999995" y="1160" as="targetPoint" />
          </mxGeometry>
        </mxCell>
        <mxCell id="xTU-l0KiYJfRe7PfPw5q-212" value="" style="endArrow=none;html=1;rounded=0;labelBackgroundColor=#F1FAEE;strokeColor=#457B9D;fontColor=#1D3557;" parent="1" edge="1">
          <mxGeometry width="50" height="50" relative="1" as="geometry">
            <mxPoint x="1222.5" y="1260" as="sourcePoint" />
            <mxPoint x="2022.4999999999995" y="1260" as="targetPoint" />
          </mxGeometry>
        </mxCell>
        <mxCell id="xTU-l0KiYJfRe7PfPw5q-213" value="" style="edgeStyle=orthogonalEdgeStyle;rounded=1;sketch=0;orthogonalLoop=1;jettySize=auto;html=1;fontSize=15;fontColor=#7EA6E0;strokeColor=#7EA6E0;fillColor=#A8DADC;" parent="1" source="xTU-l0KiYJfRe7PfPw5q-214" target="xTU-l0KiYJfRe7PfPw5q-215" edge="1">
          <mxGeometry relative="1" as="geometry" />
        </mxCell>
        <mxCell id="xTU-l0KiYJfRe7PfPw5q-214" value="QuestionReplyDao" style="text;html=1;strokeColor=none;fillColor=none;align=center;verticalAlign=middle;whiteSpace=wrap;rounded=0;fontSize=15;fontColor=#7EA6E0;" parent="1" vertex="1">
          <mxGeometry x="1572.5" y="1195" width="120" height="30" as="geometry" />
        </mxCell>
        <mxCell id="xTU-l0KiYJfRe7PfPw5q-215" value="question_reply" style="text;html=1;strokeColor=none;fillColor=none;align=center;verticalAlign=middle;whiteSpace=wrap;rounded=0;fontSize=15;fontColor=#7EA6E0;" parent="1" vertex="1">
          <mxGeometry x="1572.5" y="1280" width="120" height="30" as="geometry" />
        </mxCell>
        <mxCell id="xTU-l0KiYJfRe7PfPw5q-216" value="" style="rounded=0;whiteSpace=wrap;html=1;fontSize=15;" parent="1" vertex="1">
          <mxGeometry x="3190" y="120" width="870" height="330" as="geometry" />
        </mxCell>
        <mxCell id="xTU-l0KiYJfRe7PfPw5q-217" value="CONTROLLER" style="text;html=1;strokeColor=none;fillColor=none;align=center;verticalAlign=middle;whiteSpace=wrap;rounded=0;fontColor=#1D3557;" parent="1" vertex="1">
          <mxGeometry x="3225" y="170" width="80" height="20" as="geometry" />
        </mxCell>
        <mxCell id="xTU-l0KiYJfRe7PfPw5q-218" value="SERVICE" style="text;html=1;strokeColor=none;fillColor=none;align=center;verticalAlign=middle;whiteSpace=wrap;rounded=0;fontColor=#1D3557;" parent="1" vertex="1">
          <mxGeometry x="3225" y="230" width="80" height="20" as="geometry" />
        </mxCell>
        <mxCell id="xTU-l0KiYJfRe7PfPw5q-219" value="REPOSITORY" style="text;html=1;strokeColor=none;fillColor=none;align=center;verticalAlign=middle;whiteSpace=wrap;rounded=0;fontColor=#1D3557;" parent="1" vertex="1">
          <mxGeometry x="3225" y="310" width="80" height="20" as="geometry" />
        </mxCell>
        <mxCell id="xTU-l0KiYJfRe7PfPw5q-220" value="DB 테이블" style="text;html=1;strokeColor=none;fillColor=none;align=center;verticalAlign=middle;whiteSpace=wrap;rounded=0;fontColor=#1D3557;" parent="1" vertex="1">
          <mxGeometry x="3225" y="395" width="80" height="20" as="geometry" />
        </mxCell>
        <mxCell id="xTU-l0KiYJfRe7PfPw5q-221" value="" style="endArrow=none;html=1;rounded=0;labelBackgroundColor=#F1FAEE;strokeColor=#457B9D;fontColor=#1D3557;" parent="1" edge="1">
          <mxGeometry width="50" height="50" relative="1" as="geometry">
            <mxPoint x="3215" y="210" as="sourcePoint" />
            <mxPoint x="4015" y="210" as="targetPoint" />
          </mxGeometry>
        </mxCell>
        <mxCell id="xTU-l0KiYJfRe7PfPw5q-222" value="" style="edgeStyle=orthogonalEdgeStyle;rounded=1;sketch=0;orthogonalLoop=1;jettySize=auto;html=1;fontSize=15;fontColor=#7EA6E0;strokeColor=#FF9999;fillColor=#A8DADC;" parent="1" source="xTU-l0KiYJfRe7PfPw5q-225" target="xTU-l0KiYJfRe7PfPw5q-229" edge="1">
          <mxGeometry relative="1" as="geometry">
            <Array as="points">
              <mxPoint x="3610" y="200" />
              <mxPoint x="3430" y="200" />
            </Array>
          </mxGeometry>
        </mxCell>
        <mxCell id="xTU-l0KiYJfRe7PfPw5q-223" value="" style="edgeStyle=orthogonalEdgeStyle;rounded=1;sketch=0;orthogonalLoop=1;jettySize=auto;html=1;fontSize=15;fontColor=#7EA6E0;strokeColor=#7EA6E0;fillColor=#A8DADC;" parent="1" source="xTU-l0KiYJfRe7PfPw5q-225" target="xTU-l0KiYJfRe7PfPw5q-231" edge="1">
          <mxGeometry relative="1" as="geometry">
            <Array as="points">
              <mxPoint x="3625" y="280" />
              <mxPoint x="3521" y="280" />
            </Array>
          </mxGeometry>
        </mxCell>
        <mxCell id="xTU-l0KiYJfRe7PfPw5q-224" value="" style="edgeStyle=orthogonalEdgeStyle;rounded=1;sketch=0;orthogonalLoop=1;jettySize=auto;html=1;fontSize=15;fontColor=#7EA6E0;strokeColor=#7EA6E0;fillColor=#A8DADC;" parent="1" source="xTU-l0KiYJfRe7PfPw5q-225" target="xTU-l0KiYJfRe7PfPw5q-234" edge="1">
          <mxGeometry relative="1" as="geometry">
            <Array as="points">
              <mxPoint x="3625" y="280" />
              <mxPoint x="3750" y="280" />
            </Array>
          </mxGeometry>
        </mxCell>
        <mxCell id="xTU-l0KiYJfRe7PfPw5q-225" value="AdoptController" style="text;html=1;strokeColor=none;fillColor=none;align=center;verticalAlign=middle;whiteSpace=wrap;rounded=0;fontSize=20;fontColor=#7EA6E0;" parent="1" vertex="1">
          <mxGeometry x="3565" y="150" width="120" height="30" as="geometry" />
        </mxCell>
        <mxCell id="xTU-l0KiYJfRe7PfPw5q-226" value="" style="endArrow=none;html=1;rounded=0;labelBackgroundColor=#F1FAEE;strokeColor=#457B9D;fontColor=#1D3557;" parent="1" edge="1">
          <mxGeometry width="50" height="50" relative="1" as="geometry">
            <mxPoint x="3215" y="270" as="sourcePoint" />
            <mxPoint x="4015" y="270" as="targetPoint" />
          </mxGeometry>
        </mxCell>
        <mxCell id="xTU-l0KiYJfRe7PfPw5q-227" value="" style="endArrow=none;html=1;rounded=0;labelBackgroundColor=#F1FAEE;strokeColor=#457B9D;fontColor=#1D3557;" parent="1" edge="1">
          <mxGeometry width="50" height="50" relative="1" as="geometry">
            <mxPoint x="3215" y="370" as="sourcePoint" />
            <mxPoint x="4015" y="370" as="targetPoint" />
          </mxGeometry>
        </mxCell>
        <mxCell id="xTU-l0KiYJfRe7PfPw5q-228" style="edgeStyle=orthogonalEdgeStyle;rounded=1;sketch=0;orthogonalLoop=1;jettySize=auto;html=1;fontSize=15;fontColor=#7EA6E0;strokeColor=#FF9999;fillColor=#A8DADC;" parent="1" source="xTU-l0KiYJfRe7PfPw5q-229" edge="1">
          <mxGeometry relative="1" as="geometry">
            <mxPoint x="3520" y="280" as="targetPoint" />
            <Array as="points">
              <mxPoint x="3430" y="260" />
              <mxPoint x="3520" y="260" />
              <mxPoint x="3520" y="280" />
            </Array>
          </mxGeometry>
        </mxCell>
        <mxCell id="xTU-l0KiYJfRe7PfPw5q-240" style="edgeStyle=orthogonalEdgeStyle;rounded=1;sketch=0;orthogonalLoop=1;jettySize=auto;html=1;fontSize=15;fontColor=#7EA6E0;strokeColor=#FF9999;fillColor=#A8DADC;" parent="1" source="xTU-l0KiYJfRe7PfPw5q-229" edge="1">
          <mxGeometry relative="1" as="geometry">
            <mxPoint x="3750" y="279.9999999999999" as="targetPoint" />
            <Array as="points">
              <mxPoint x="3430" y="260" />
              <mxPoint x="3750" y="260" />
            </Array>
          </mxGeometry>
        </mxCell>
        <mxCell id="xTU-l0KiYJfRe7PfPw5q-229" value="AdoptFileService" style="text;html=1;strokeColor=none;fillColor=none;align=center;verticalAlign=middle;whiteSpace=wrap;rounded=0;fontSize=15;fontColor=#7EA6E0;" parent="1" vertex="1">
          <mxGeometry x="3370" y="225" width="120" height="30" as="geometry" />
        </mxCell>
        <mxCell id="xTU-l0KiYJfRe7PfPw5q-230" value="" style="edgeStyle=orthogonalEdgeStyle;rounded=1;sketch=0;orthogonalLoop=1;jettySize=auto;html=1;fontSize=15;fontColor=#7EA6E0;strokeColor=#7EA6E0;fillColor=#A8DADC;" parent="1" source="xTU-l0KiYJfRe7PfPw5q-231" target="xTU-l0KiYJfRe7PfPw5q-235" edge="1">
          <mxGeometry relative="1" as="geometry" />
        </mxCell>
        <mxCell id="xTU-l0KiYJfRe7PfPw5q-231" value="AdoptDao" style="text;html=1;strokeColor=none;fillColor=none;align=center;verticalAlign=middle;whiteSpace=wrap;rounded=0;fontSize=15;fontColor=#7EA6E0;" parent="1" vertex="1">
          <mxGeometry x="3461" y="305" width="120" height="30" as="geometry" />
        </mxCell>
        <mxCell id="xTU-l0KiYJfRe7PfPw5q-232" value="" style="edgeStyle=orthogonalEdgeStyle;rounded=1;sketch=0;orthogonalLoop=1;jettySize=auto;html=1;fontSize=15;fontColor=#7EA6E0;strokeColor=#7EA6E0;fillColor=#A8DADC;" parent="1" source="xTU-l0KiYJfRe7PfPw5q-234" target="xTU-l0KiYJfRe7PfPw5q-236" edge="1">
          <mxGeometry relative="1" as="geometry" />
        </mxCell>
        <mxCell id="xTU-l0KiYJfRe7PfPw5q-233" value="" style="edgeStyle=orthogonalEdgeStyle;rounded=1;sketch=0;orthogonalLoop=1;jettySize=auto;html=1;fontSize=15;fontColor=#7EA6E0;strokeColor=#FF9999;fillColor=#A8DADC;" parent="1" source="xTU-l0KiYJfRe7PfPw5q-234" target="xTU-l0KiYJfRe7PfPw5q-237" edge="1">
          <mxGeometry relative="1" as="geometry">
            <Array as="points">
              <mxPoint x="3750" y="360" />
              <mxPoint x="3940" y="360" />
            </Array>
          </mxGeometry>
        </mxCell>
        <mxCell id="xTU-l0KiYJfRe7PfPw5q-234" value="AdoptImgDao" style="text;html=1;strokeColor=none;fillColor=none;align=center;verticalAlign=middle;whiteSpace=wrap;rounded=0;fontSize=15;fontColor=#7EA6E0;" parent="1" vertex="1">
          <mxGeometry x="3690" y="305" width="120" height="30" as="geometry" />
        </mxCell>
        <mxCell id="xTU-l0KiYJfRe7PfPw5q-235" value="adopt" style="text;html=1;strokeColor=none;fillColor=none;align=center;verticalAlign=middle;whiteSpace=wrap;rounded=0;fontSize=15;fontColor=#7EA6E0;" parent="1" vertex="1">
          <mxGeometry x="3461" y="395" width="120" height="20" as="geometry" />
        </mxCell>
        <mxCell id="xTU-l0KiYJfRe7PfPw5q-236" value="adopt_img" style="text;html=1;strokeColor=none;fillColor=none;align=center;verticalAlign=middle;whiteSpace=wrap;rounded=0;fontSize=15;fontColor=#7EA6E0;" parent="1" vertex="1">
          <mxGeometry x="3690" y="400" width="120" height="15" as="geometry" />
        </mxCell>
        <mxCell id="xTU-l0KiYJfRe7PfPw5q-237" value="D:\dev\ttamna\adopt" style="text;html=1;strokeColor=none;fillColor=none;align=center;verticalAlign=middle;whiteSpace=wrap;rounded=0;fontSize=15;fontColor=#FF9999;" parent="1" vertex="1">
          <mxGeometry x="3890" y="395" width="120" height="30" as="geometry" />
        </mxCell>
        <mxCell id="xTU-l0KiYJfRe7PfPw5q-238" value="" style="endArrow=none;html=1;rounded=1;sketch=0;fontSize=15;fontColor=#7EA6E0;strokeColor=#7EA6E0;fillColor=#A8DADC;" parent="1" edge="1">
          <mxGeometry width="50" height="50" relative="1" as="geometry">
            <mxPoint x="3860" y="450" as="sourcePoint" />
            <mxPoint x="3860" y="370" as="targetPoint" />
          </mxGeometry>
        </mxCell>
        <mxCell id="xTU-l0KiYJfRe7PfPw5q-242" value="" style="rounded=0;whiteSpace=wrap;html=1;fontSize=15;" parent="1" vertex="1">
          <mxGeometry x="2180" y="1010" width="870" height="330" as="geometry" />
        </mxCell>
        <mxCell id="xTU-l0KiYJfRe7PfPw5q-243" value="CONTROLLER" style="text;html=1;strokeColor=none;fillColor=none;align=center;verticalAlign=middle;whiteSpace=wrap;rounded=0;fontColor=#1D3557;" parent="1" vertex="1">
          <mxGeometry x="2215" y="1060" width="80" height="20" as="geometry" />
        </mxCell>
        <mxCell id="xTU-l0KiYJfRe7PfPw5q-244" value="SERVICE" style="text;html=1;strokeColor=none;fillColor=none;align=center;verticalAlign=middle;whiteSpace=wrap;rounded=0;fontColor=#1D3557;" parent="1" vertex="1">
          <mxGeometry x="2215" y="1120" width="80" height="20" as="geometry" />
        </mxCell>
        <mxCell id="xTU-l0KiYJfRe7PfPw5q-245" value="REPOSITORY" style="text;html=1;strokeColor=none;fillColor=none;align=center;verticalAlign=middle;whiteSpace=wrap;rounded=0;fontColor=#1D3557;" parent="1" vertex="1">
          <mxGeometry x="2215" y="1200" width="80" height="20" as="geometry" />
        </mxCell>
        <mxCell id="xTU-l0KiYJfRe7PfPw5q-246" value="DB 테이블" style="text;html=1;strokeColor=none;fillColor=none;align=center;verticalAlign=middle;whiteSpace=wrap;rounded=0;fontColor=#1D3557;" parent="1" vertex="1">
          <mxGeometry x="2215" y="1285" width="80" height="20" as="geometry" />
        </mxCell>
        <mxCell id="xTU-l0KiYJfRe7PfPw5q-247" value="" style="endArrow=none;html=1;rounded=0;labelBackgroundColor=#F1FAEE;strokeColor=#457B9D;fontColor=#1D3557;" parent="1" edge="1">
          <mxGeometry width="50" height="50" relative="1" as="geometry">
            <mxPoint x="2205" y="1100" as="sourcePoint" />
            <mxPoint x="3005" y="1100" as="targetPoint" />
          </mxGeometry>
        </mxCell>
        <mxCell id="xTU-l0KiYJfRe7PfPw5q-248" value="" style="edgeStyle=orthogonalEdgeStyle;rounded=1;sketch=0;orthogonalLoop=1;jettySize=auto;html=1;fontSize=15;fontColor=#7EA6E0;strokeColor=#7EA6E0;fillColor=#A8DADC;" parent="1" source="xTU-l0KiYJfRe7PfPw5q-249" target="xTU-l0KiYJfRe7PfPw5q-253" edge="1">
          <mxGeometry relative="1" as="geometry" />
        </mxCell>
        <mxCell id="xTU-l0KiYJfRe7PfPw5q-249" value="MybabyReplyController" style="text;html=1;strokeColor=none;fillColor=none;align=center;verticalAlign=middle;whiteSpace=wrap;rounded=0;fontSize=20;fontColor=#7EA6E0;" parent="1" vertex="1">
          <mxGeometry x="2555" y="1040" width="120" height="30" as="geometry" />
        </mxCell>
        <mxCell id="xTU-l0KiYJfRe7PfPw5q-250" value="" style="endArrow=none;html=1;rounded=0;labelBackgroundColor=#F1FAEE;strokeColor=#457B9D;fontColor=#1D3557;" parent="1" edge="1">
          <mxGeometry width="50" height="50" relative="1" as="geometry">
            <mxPoint x="2205" y="1160" as="sourcePoint" />
            <mxPoint x="3005" y="1160" as="targetPoint" />
          </mxGeometry>
        </mxCell>
        <mxCell id="xTU-l0KiYJfRe7PfPw5q-251" value="" style="endArrow=none;html=1;rounded=0;labelBackgroundColor=#F1FAEE;strokeColor=#457B9D;fontColor=#1D3557;" parent="1" edge="1">
          <mxGeometry width="50" height="50" relative="1" as="geometry">
            <mxPoint x="2205" y="1260" as="sourcePoint" />
            <mxPoint x="3005" y="1260" as="targetPoint" />
          </mxGeometry>
        </mxCell>
        <mxCell id="xTU-l0KiYJfRe7PfPw5q-252" value="" style="edgeStyle=orthogonalEdgeStyle;rounded=1;sketch=0;orthogonalLoop=1;jettySize=auto;html=1;fontSize=15;fontColor=#7EA6E0;strokeColor=#7EA6E0;fillColor=#A8DADC;" parent="1" source="xTU-l0KiYJfRe7PfPw5q-253" target="xTU-l0KiYJfRe7PfPw5q-254" edge="1">
          <mxGeometry relative="1" as="geometry" />
        </mxCell>
        <mxCell id="xTU-l0KiYJfRe7PfPw5q-253" value="MybabyReplyDao" style="text;html=1;strokeColor=none;fillColor=none;align=center;verticalAlign=middle;whiteSpace=wrap;rounded=0;fontSize=15;fontColor=#7EA6E0;" parent="1" vertex="1">
          <mxGeometry x="2555" y="1195" width="120" height="30" as="geometry" />
        </mxCell>
        <mxCell id="xTU-l0KiYJfRe7PfPw5q-254" value="mybaby_reply" style="text;html=1;strokeColor=none;fillColor=none;align=center;verticalAlign=middle;whiteSpace=wrap;rounded=0;fontSize=15;fontColor=#7EA6E0;" parent="1" vertex="1">
          <mxGeometry x="2555" y="1280" width="120" height="30" as="geometry" />
        </mxCell>
        <mxCell id="tBZU_ZRpWSbcf49B_pvA-1" value="" style="rounded=0;whiteSpace=wrap;html=1;fontSize=15;" vertex="1" parent="1">
          <mxGeometry x="3190" y="550" width="870" height="330" as="geometry" />
        </mxCell>
        <mxCell id="tBZU_ZRpWSbcf49B_pvA-2" value="CONTROLLER" style="text;html=1;strokeColor=none;fillColor=none;align=center;verticalAlign=middle;whiteSpace=wrap;rounded=0;fontColor=#1D3557;" vertex="1" parent="1">
          <mxGeometry x="3225" y="600" width="80" height="20" as="geometry" />
        </mxCell>
        <mxCell id="tBZU_ZRpWSbcf49B_pvA-3" value="SERVICE" style="text;html=1;strokeColor=none;fillColor=none;align=center;verticalAlign=middle;whiteSpace=wrap;rounded=0;fontColor=#1D3557;" vertex="1" parent="1">
          <mxGeometry x="3225" y="660" width="80" height="20" as="geometry" />
        </mxCell>
        <mxCell id="tBZU_ZRpWSbcf49B_pvA-4" value="REPOSITORY" style="text;html=1;strokeColor=none;fillColor=none;align=center;verticalAlign=middle;whiteSpace=wrap;rounded=0;fontColor=#1D3557;" vertex="1" parent="1">
          <mxGeometry x="3225" y="740" width="80" height="20" as="geometry" />
        </mxCell>
        <mxCell id="tBZU_ZRpWSbcf49B_pvA-5" value="DB 테이블" style="text;html=1;strokeColor=none;fillColor=none;align=center;verticalAlign=middle;whiteSpace=wrap;rounded=0;fontColor=#1D3557;" vertex="1" parent="1">
          <mxGeometry x="3225" y="825" width="80" height="20" as="geometry" />
        </mxCell>
        <mxCell id="tBZU_ZRpWSbcf49B_pvA-6" value="" style="endArrow=none;html=1;rounded=0;labelBackgroundColor=#F1FAEE;strokeColor=#457B9D;fontColor=#1D3557;" edge="1" parent="1">
          <mxGeometry width="50" height="50" relative="1" as="geometry">
            <mxPoint x="3215" y="640" as="sourcePoint" />
            <mxPoint x="4015" y="640" as="targetPoint" />
          </mxGeometry>
        </mxCell>
        <mxCell id="tBZU_ZRpWSbcf49B_pvA-8" value="" style="edgeStyle=orthogonalEdgeStyle;rounded=1;sketch=0;orthogonalLoop=1;jettySize=auto;html=1;fontSize=15;fontColor=#7EA6E0;strokeColor=#7EA6E0;fillColor=#A8DADC;" edge="1" parent="1" source="tBZU_ZRpWSbcf49B_pvA-10" target="tBZU_ZRpWSbcf49B_pvA-17">
          <mxGeometry relative="1" as="geometry">
            <Array as="points">
              <mxPoint x="3625" y="740" />
              <mxPoint x="3625" y="740" />
            </Array>
          </mxGeometry>
        </mxCell>
        <mxCell id="tBZU_ZRpWSbcf49B_pvA-10" value="MybabyAjaxController" style="text;html=1;strokeColor=none;fillColor=none;align=center;verticalAlign=middle;whiteSpace=wrap;rounded=0;fontSize=20;fontColor=#7EA6E0;" vertex="1" parent="1">
          <mxGeometry x="3565" y="580" width="120" height="30" as="geometry" />
        </mxCell>
        <mxCell id="tBZU_ZRpWSbcf49B_pvA-11" value="" style="endArrow=none;html=1;rounded=0;labelBackgroundColor=#F1FAEE;strokeColor=#457B9D;fontColor=#1D3557;" edge="1" parent="1">
          <mxGeometry width="50" height="50" relative="1" as="geometry">
            <mxPoint x="3215" y="700" as="sourcePoint" />
            <mxPoint x="4015" y="700" as="targetPoint" />
          </mxGeometry>
        </mxCell>
        <mxCell id="tBZU_ZRpWSbcf49B_pvA-12" value="" style="endArrow=none;html=1;rounded=0;labelBackgroundColor=#F1FAEE;strokeColor=#457B9D;fontColor=#1D3557;" edge="1" parent="1">
          <mxGeometry width="50" height="50" relative="1" as="geometry">
            <mxPoint x="3215" y="800" as="sourcePoint" />
            <mxPoint x="4015" y="800" as="targetPoint" />
          </mxGeometry>
        </mxCell>
        <mxCell id="tBZU_ZRpWSbcf49B_pvA-16" value="" style="edgeStyle=orthogonalEdgeStyle;rounded=1;sketch=0;orthogonalLoop=1;jettySize=auto;html=1;fontSize=15;fontColor=#7EA6E0;strokeColor=#7EA6E0;fillColor=#A8DADC;" edge="1" parent="1" source="tBZU_ZRpWSbcf49B_pvA-17" target="tBZU_ZRpWSbcf49B_pvA-21">
          <mxGeometry relative="1" as="geometry">
            <Array as="points">
              <mxPoint x="3625" y="835" />
            </Array>
          </mxGeometry>
        </mxCell>
        <mxCell id="tBZU_ZRpWSbcf49B_pvA-17" value="MybabyLikeDao" style="text;html=1;strokeColor=none;fillColor=none;align=center;verticalAlign=middle;whiteSpace=wrap;rounded=0;fontSize=15;fontColor=#7EA6E0;" vertex="1" parent="1">
          <mxGeometry x="3565" y="743.75" width="120" height="30" as="geometry" />
        </mxCell>
        <mxCell id="tBZU_ZRpWSbcf49B_pvA-21" value="mybaby_like" style="text;html=1;strokeColor=none;fillColor=none;align=center;verticalAlign=middle;whiteSpace=wrap;rounded=0;fontSize=15;fontColor=#7EA6E0;" vertex="1" parent="1">
          <mxGeometry x="3565" y="825" width="120" height="20" as="geometry" />
        </mxCell>
      </root>
    </mxGraphModel>
  </diagram>
</mxfile>
